<?xml version="1.0" encoding="UTF-8"?>
<!DOCTYPE svg PUBLIC "-//W3C//DTD SVG 1.1//EN" "http://www.w3.org/Graphics/SVG/1.1/DTD/svg11.dtd">
<svg xmlns="http://www.w3.org/2000/svg" version="1.1" width="1132px" height="1120px" style="shape-rendering:geometricPrecision; text-rendering:geometricPrecision; image-rendering:optimizeQuality; fill-rule:evenodd; clip-rule:evenodd" xmlns:xlink="http://www.w3.org/1999/xlink">
<g><path style="opacity:1" fill="#fefefe" d="M -0.5,-0.5 C 376.833,-0.5 754.167,-0.5 1131.5,-0.5C 1131.5,372.833 1131.5,746.167 1131.5,1119.5C 754.167,1119.5 376.833,1119.5 -0.5,1119.5C -0.5,746.167 -0.5,372.833 -0.5,-0.5 Z"/></g>
<g><path style="opacity:1" fill="#b080cb" d="M 280.5,163.5 C 279.833,163.5 279.5,163.833 279.5,164.5C 277.401,159.432 276.235,154.099 276,148.5C 277.405,153.548 278.905,158.548 280.5,163.5 Z"/></g>
<g><path style="opacity:1" fill="#7c2ea9" d="M 280.5,163.5 C 294.249,200.997 312.749,235.997 336,268.5C 365.339,308.523 397.673,346.19 433,381.5C 448.478,399.108 461.478,418.441 472,439.5C 473.843,443.015 474.843,446.682 475,450.5C 393.144,385.011 332.477,304.011 293,207.5C 287.597,193.458 283.097,179.125 279.5,164.5C 279.5,163.833 279.833,163.5 280.5,163.5 Z"/></g>
<g><path style="opacity:1" fill="#7929a7" d="M 551.5,544.5 C 551.938,544.565 552.272,544.399 552.5,544C 549.933,541.604 547.6,539.104 545.5,536.5C 531.435,519.931 516.435,504.098 500.5,489C 483.139,473.491 462.806,464.157 439.5,461C 424.763,460.299 410.097,458.965 395.5,457C 376.091,447.625 358.757,435.291 343.5,420C 357.569,425.102 371.902,429.435 386.5,433C 367.214,423.357 348.214,413.19 329.5,402.5C 306.805,371.445 289.639,337.445 278,300.5C 275.797,292.412 273.964,284.246 272.5,276C 272.85,274.743 273.517,274.409 274.5,275C 286.068,282.75 297.734,290.25 309.5,297.5C 296.27,287.114 283.436,276.114 271,264.5C 267.133,232.723 267.8,201.057 273,169.5C 273.249,168.376 273.749,167.376 274.5,166.5C 295.557,241.966 331.724,308.966 383,367.5C 392.833,378 402.667,388.5 412.5,399C 441.167,424.333 469.833,449.667 498.5,475C 527.109,501.608 555.109,528.941 582.5,557C 581.5,557.667 580.5,557.667 579.5,557C 570.107,552.713 560.774,548.546 551.5,544.5 Z"/></g>
<g><path style="opacity:1" fill="#c49fd8" d="M 309.5,297.5 C 310.756,297.461 311.756,297.961 312.5,299C 311.002,299.585 310.002,299.085 309.5,297.5 Z"/></g>
<g><path style="opacity:1" fill="#a541b5" d="M 621.5,330.5 C 623.912,330.694 624.912,332.027 624.5,334.5C 625.5,334.5 626.5,334.5 627.5,334.5C 627.5,335.5 627.5,336.5 627.5,337.5C 632.745,338.75 632.745,340.417 627.5,342.5C 628.246,343.736 628.579,345.07 628.5,346.5C 626.5,346.167 624.5,345.833 622.5,345.5C 622.769,347.429 622.269,349.095 621,350.5C 619.681,348.75 619.181,346.75 619.5,344.5C 617.167,344.5 614.833,344.5 612.5,344.5C 612.809,341.654 614.475,340.154 617.5,340C 611.768,335.55 612.435,333.884 619.5,335C 620.267,333.53 620.933,332.03 621.5,330.5 Z"/></g>
<g><path style="opacity:1" fill="#a746b7" d="M 571.5,350.5 C 572.5,350.5 573.5,350.5 574.5,350.5C 574.052,355.884 573.552,361.217 573,366.5C 575.763,363.565 578.596,360.898 581.5,358.5C 582.167,358.833 582.833,359.167 583.5,359.5C 581.549,362.786 579.215,365.786 576.5,368.5C 576.833,368.833 577.167,369.167 577.5,369.5C 581.378,366.556 585.711,365.39 590.5,366C 589.5,367 588.5,368 587.5,369C 583.684,370.409 580.017,372.076 576.5,374C 581.855,374.771 587.188,375.605 592.5,376.5C 592.5,377.5 592.5,378.5 592.5,379.5C 587.586,379.431 582.752,378.764 578,377.5C 577.5,377.833 577,378.167 576.5,378.5C 580.427,381.715 584.26,385.049 588,388.5C 588.483,389.448 588.649,390.448 588.5,391.5C 584.418,390.617 581.084,388.451 578.5,385C 576.945,383.711 575.279,383.044 573.5,383C 576.216,387.62 577.549,392.454 577.5,397.5C 576.098,397.135 575.098,396.301 574.5,395C 573.356,390.899 571.689,387.066 569.5,383.5C 567.944,388.725 566.944,394.058 566.5,399.5C 565.5,399.5 564.5,399.5 563.5,399.5C 563.738,394.142 563.904,388.809 564,383.5C 561.5,386.667 559,389.833 556.5,393C 555.517,393.591 554.85,393.257 554.5,392C 556.222,387.782 558.555,383.948 561.5,380.5C 561.167,380.167 560.833,379.833 560.5,379.5C 556.937,382.583 552.937,383.583 548.5,382.5C 551.801,379.844 555.468,377.678 559.5,376C 540.918,373.214 541.251,371.547 560.5,371C 557.5,368.5 554.5,366 551.5,363.5C 550.614,362.675 550.281,361.675 550.5,360.5C 552.308,360.491 553.975,360.991 555.5,362C 558.333,364.167 561.167,366.333 564,368.5C 563.375,364.446 562.208,360.446 560.5,356.5C 561.289,354.512 562.455,354.179 564,355.5C 565.528,358.417 566.861,361.417 568,364.5C 569.795,359.988 570.961,355.321 571.5,350.5 Z"/></g>
<g><path style="opacity:1" fill="#a848b8" d="M 688.5,353.5 C 690.384,353.712 691.717,354.712 692.5,356.5C 695.948,353.842 696.948,354.675 695.5,359C 699.204,361.136 699.204,362.969 695.5,364.5C 694.571,365.689 694.238,367.022 694.5,368.5C 692.088,368.756 690.421,367.756 689.5,365.5C 687.929,366.309 686.262,366.643 684.5,366.5C 684.421,365.07 684.754,363.736 685.5,362.5C 682.625,359.46 683.292,357.794 687.5,357.5C 687.433,356.041 687.766,354.708 688.5,353.5 Z"/></g>
<g><path style="opacity:1" fill="#b058be" d="M 637.5,354.5 C 638.675,354.281 639.675,354.614 640.5,355.5C 638.948,356.798 637.948,356.465 637.5,354.5 Z"/></g>
<g><path style="opacity:1" fill="#b25dbf" d="M 630.5,360.5 C 631.5,360.5 632.5,360.5 633.5,360.5C 633.5,361.5 633.5,362.5 633.5,363.5C 630.506,363.854 629.506,362.854 630.5,360.5 Z"/></g>
<g><path style="opacity:1" fill="#b15abe" d="M 646.5,363.5 C 648.912,363.694 649.912,365.027 649.5,367.5C 648.167,367.5 646.833,367.5 645.5,367.5C 645.433,366.041 645.766,364.708 646.5,363.5 Z"/></g>
<g><path style="opacity:1" fill="#a747b7" d="M 620.5,364.5 C 621.827,365.8 623.16,367.133 624.5,368.5C 625.736,367.754 627.07,367.421 628.5,367.5C 628.617,369.484 627.95,371.15 626.5,372.5C 627.246,373.736 627.579,375.07 627.5,376.5C 624.951,376.441 622.951,377.441 621.5,379.5C 620.333,377.833 619.167,376.167 618,374.5C 616.989,375.337 615.822,375.67 614.5,375.5C 614.393,373.097 615.393,371.264 617.5,370C 616.643,369.311 615.977,368.478 615.5,367.5C 617.145,366.304 618.811,365.304 620.5,364.5 Z"/></g>
<g><path style="opacity:1" fill="#af57bd" d="M 670.5,368.5 C 672.625,369.368 672.791,370.368 671,371.5C 669.317,370.824 669.15,369.824 670.5,368.5 Z"/></g>
<g><path style="opacity:1" fill="#a746b7" d="M 728.5,370.5 C 729.642,372.972 731.642,373.972 734.5,373.5C 734.67,374.822 734.337,375.989 733.5,377C 735.037,378.11 735.703,379.61 735.5,381.5C 733.077,381.424 731.244,382.424 730,384.5C 727.901,383.713 725.734,383.38 723.5,383.5C 723.421,382.07 723.754,380.736 724.5,379.5C 723.5,378.167 722.5,376.833 721.5,375.5C 723.045,374.548 724.712,374.215 726.5,374.5C 726.527,372.801 727.194,371.467 728.5,370.5 Z"/></g>
<g><path style="opacity:1" fill="#b25dbf" d="M 700.5,373.5 C 702.048,373.821 702.715,374.821 702.5,376.5C 699.752,376.598 699.086,375.598 700.5,373.5 Z"/></g>
<g><path style="opacity:1" fill="#b25ec0" d="M 694.5,376.5 C 696.355,376.272 697.188,376.939 697,378.5C 694.192,379.86 693.359,379.193 694.5,376.5 Z"/></g>
<g><path style="opacity:1" fill="#a746b7" d="M 676.5,381.5 C 677.833,381.5 679.167,381.5 680.5,381.5C 680.5,383.167 680.5,384.833 680.5,386.5C 682.5,386.5 684.5,386.5 686.5,386.5C 686.5,387.5 686.5,388.5 686.5,389.5C 684.897,389.312 683.563,389.812 682.5,391C 684.037,392.11 684.703,393.61 684.5,395.5C 682.856,395.714 681.356,395.38 680,394.5C 677.803,399.859 676.303,399.526 675.5,393.5C 673.833,393.5 672.167,393.5 670.5,393.5C 670.561,391.408 671.561,389.908 673.5,389C 670.461,384.583 671.461,383.083 676.5,384.5C 676.5,383.5 676.5,382.5 676.5,381.5 Z"/></g>
<g><path style="opacity:1" fill="#ae55bd" d="M 644.5,394.5 C 645.5,394.5 646.5,394.5 647.5,394.5C 646.754,398.31 645.754,398.31 644.5,394.5 Z"/></g>
<g><path style="opacity:1" fill="#a94bb9" d="M 654.5,396.5 C 655.5,396.5 656.5,396.5 657.5,396.5C 657.5,397.5 657.5,398.5 657.5,399.5C 656.5,399.5 655.5,399.5 654.5,399.5C 654.5,398.5 654.5,397.5 654.5,396.5 Z"/></g>
<g><path style="opacity:1" fill="#a643b6" d="M 620.5,400.5 C 621.675,400.281 622.675,400.614 623.5,401.5C 624.854,405.934 626.354,410.268 628,414.5C 629.156,410.877 630.156,407.211 631,403.5C 632.612,400.921 634.112,400.921 635.5,403.5C 633.573,407.305 632.739,411.305 633,415.5C 635.285,413.093 637.451,410.593 639.5,408C 641.074,407.301 642.407,407.635 643.5,409C 640.703,412.799 637.536,416.299 634,419.5C 633.312,420.332 633.479,420.998 634.5,421.5C 639.927,420.143 645.26,418.476 650.5,416.5C 651.9,418.782 651.234,420.282 648.5,421C 644.392,422.027 640.392,423.36 636.5,425C 639.73,426.308 643.064,427.308 646.5,428C 647.5,428.833 648.5,429.667 649.5,430.5C 645.004,431.216 640.671,431.216 636.5,430.5C 638.483,432.984 640.65,435.317 643,437.5C 643.483,438.448 643.649,439.448 643.5,440.5C 642.448,440.649 641.448,440.483 640.5,440C 637.984,437.317 635.317,434.817 632.5,432.5C 632.167,432.833 631.833,433.167 631.5,433.5C 632.992,438.47 634.326,443.47 635.5,448.5C 634.178,448.67 633.011,448.337 632,447.5C 630.65,443.09 629.15,438.757 627.5,434.5C 625.57,437.872 624.404,441.539 624,445.5C 622.175,446.571 621.008,445.904 620.5,443.5C 621.973,440.285 622.473,436.951 622,433.5C 619.142,437.214 615.642,439.88 611.5,441.5C 613.117,436.469 616.117,432.303 620.5,429C 614.813,429.369 609.146,429.203 603.5,428.5C 603.709,427.914 604.043,427.414 604.5,427C 608.573,426.212 612.573,425.212 616.5,424C 612.736,423.134 609.069,421.967 605.5,420.5C 604.614,419.675 604.281,418.675 604.5,417.5C 609.092,417.398 613.425,418.398 617.5,420.5C 615.907,417.345 613.407,414.345 610,411.5C 609.517,410.552 609.351,409.552 609.5,408.5C 610.552,408.351 611.552,408.517 612.5,409C 616.314,411.98 619.981,415.146 623.5,418.5C 623.833,418.167 624.167,417.833 624.5,417.5C 622.692,411.937 621.359,406.27 620.5,400.5 Z"/></g>
<g><path style="opacity:1" fill="#a746b7" d="M 702.5,401.5 C 704.124,401.36 705.29,402.027 706,403.5C 706.333,409.167 706.667,414.833 707,420.5C 708.152,417.56 709.152,414.56 710,411.5C 711.011,410.663 712.178,410.33 713.5,410.5C 712.47,416.273 711.304,421.939 710,427.5C 715.023,421.479 720.356,415.812 726,410.5C 726.374,411.416 726.874,412.25 727.5,413C 722.927,418.15 718.594,423.483 714.5,429C 721.064,426.643 727.564,423.809 734,420.5C 737.088,421.254 737.254,422.42 734.5,424C 729.659,426.921 724.659,429.588 719.5,432C 726.872,432.032 734.205,432.199 741.5,432.5C 740.286,434.069 738.619,434.902 736.5,435C 729.139,435.613 721.805,436.447 714.5,437.5C 721.791,440.097 729.124,442.597 736.5,445C 737.337,446.011 737.67,447.178 737.5,448.5C 731.808,447.158 726.141,445.991 720.5,445C 724.833,448 728.5,451.667 731.5,456C 730.833,456.167 730.167,456.333 729.5,456.5C 724.996,454.068 720.996,450.901 717.5,447C 716.241,446.018 714.908,445.685 713.5,446C 717.113,451.059 719.779,456.559 721.5,462.5C 720.178,462.67 719.011,462.337 718,461.5C 715,456.167 712,450.833 709,445.5C 708.809,453.563 709.142,461.563 710,469.5C 709,470.833 708,470.833 707,469.5C 705.915,461.817 704.748,454.15 703.5,446.5C 702.064,451.505 700.564,456.505 699,461.5C 698.29,462.973 697.124,463.64 695.5,463.5C 696.199,458.397 697.032,453.397 698,448.5C 695.203,452.299 692.036,455.799 688.5,459C 687.517,459.591 686.85,459.257 686.5,458C 689.211,452.618 692.711,447.785 697,443.5C 697.667,442.833 697.667,442.167 697,441.5C 691.032,444.9 684.866,447.9 678.5,450.5C 677.269,449.349 677.269,448.183 678.5,447C 684.325,444.255 689.992,441.255 695.5,438C 689.833,437.667 684.167,437.333 678.5,437C 676.519,436.395 676.185,435.395 677.5,434C 681.833,433.667 686.167,433.333 690.5,433C 685.822,431.328 681.489,429.161 677.5,426.5C 677.887,425.28 678.72,424.613 680,424.5C 685.424,426.89 690.924,428.723 696.5,430C 690.846,426.189 686.513,421.355 683.5,415.5C 684.552,415.351 685.552,415.517 686.5,416C 690.095,419.05 693.595,422.216 697,425.5C 695.686,421.858 694.019,418.191 692,414.5C 691.219,413.056 691.386,411.723 692.5,410.5C 695.901,414.957 699.068,419.623 702,424.5C 702.5,416.841 702.666,409.174 702.5,401.5 Z"/></g>
<g><path style="opacity:1" fill="#c27ccc" d="M 573.5,407.5 C 574.833,407.5 576.167,407.5 577.5,407.5C 577.5,408.833 577.5,410.167 577.5,411.5C 576.167,411.5 574.833,411.5 573.5,411.5C 573.5,410.167 573.5,408.833 573.5,407.5 Z"/></g>
<g><path style="opacity:1" fill="#a94bb9" d="M 660.5,409.5 C 661.5,409.5 662.5,409.5 663.5,409.5C 663.5,410.5 663.5,411.5 663.5,412.5C 662.5,412.5 661.5,412.5 660.5,412.5C 660.5,411.5 660.5,410.5 660.5,409.5 Z"/></g>
<g><path style="opacity:1" fill="#ad52bb" d="M 566.5,410.5 C 568.912,410.694 569.912,412.027 569.5,414.5C 566.046,414.733 565.046,413.4 566.5,410.5 Z"/></g>
<g><path style="opacity:1" fill="#ad52bb" d="M 584.5,418.5 C 585.995,418.415 586.995,419.081 587.5,420.5C 586.167,421.833 584.833,421.833 583.5,420.5C 583.863,419.817 584.196,419.15 584.5,418.5 Z"/></g>
<g><path style="opacity:1" fill="#a745b7" d="M 532.5,460.5 C 533.043,460.44 533.376,460.107 533.5,459.5C 528.88,458.507 524.214,458.173 519.5,458.5C 518.226,457.811 518.226,456.977 519.5,456C 524.167,455.667 528.833,455.333 533.5,455C 528.167,453.333 522.833,451.667 517.5,450C 514.523,447.881 514.856,446.714 518.5,446.5C 524.659,447.767 530.659,449.6 536.5,452C 538.167,452.667 539.833,452.667 541.5,452C 535.801,447.298 530.467,442.298 525.5,437C 525.833,436.5 526.167,436 526.5,435.5C 532.514,438.516 537.847,442.516 542.5,447.5C 542.833,447 543.167,446.5 543.5,446C 540.716,439.278 538.383,432.445 536.5,425.5C 537.675,425.281 538.675,425.614 539.5,426.5C 541.076,430.65 542.909,434.65 545,438.5C 545.182,435.774 545.682,433.107 546.5,430.5C 546.833,430.833 547.167,431.167 547.5,431.5C 548.011,434.974 548.844,438.307 550,441.5C 551.491,435.87 552.824,430.203 554,424.5C 554.71,423.027 555.876,422.36 557.5,422.5C 556.921,430.564 555.254,438.397 552.5,446C 552.833,446.5 553.167,447 553.5,447.5C 557.619,442.759 561.619,437.926 565.5,433C 566.793,432.51 568.127,432.343 569.5,432.5C 569.649,433.552 569.483,434.552 569,435.5C 564.645,440.354 560.478,445.354 556.5,450.5C 562.734,449.101 569.067,446.934 575.5,444C 576.833,443.333 578.167,443.333 579.5,444C 580.833,444.667 580.833,445.333 579.5,446C 574.084,448.139 568.751,450.472 563.5,453C 566.497,453.305 569.497,453.138 572.5,452.5C 573.833,452.833 575.167,453.167 576.5,453.5C 576.291,454.086 575.957,454.586 575.5,455C 570.428,455.678 565.428,456.678 560.5,458C 567.446,459.822 574.446,461.322 581.5,462.5C 581.5,463.5 581.5,464.5 581.5,465.5C 574.411,464.978 567.411,464.145 560.5,463C 565.07,467.401 569.404,471.901 573.5,476.5C 572.833,476.833 572.167,477.167 571.5,477.5C 565.613,473.956 560.28,469.623 555.5,464.5C 555.167,464.833 554.833,465.167 554.5,465.5C 557.444,472.39 560.111,479.39 562.5,486.5C 561.349,487.731 560.183,487.731 559,486.5C 556.925,480.689 554.592,475.022 552,469.5C 551.501,474.823 551.334,480.156 551.5,485.5C 550.5,485.5 549.5,485.5 548.5,485.5C 547.945,479.846 547.445,474.18 547,468.5C 544.566,474.966 543.066,481.633 542.5,488.5C 541.5,488.5 540.5,488.5 539.5,488.5C 539.485,481.065 540.818,473.898 543.5,467C 542.833,466.333 542.167,466.333 541.5,467C 538.167,471 534.833,475 531.5,479C 530.552,479.483 529.552,479.649 528.5,479.5C 528.491,477.692 528.991,476.025 530,474.5C 533.5,470.333 537,466.167 540.5,462C 532.81,464.174 525.143,466.674 517.5,469.5C 517.281,468.325 517.614,467.325 518.5,466.5C 522.956,463.937 527.623,461.937 532.5,460.5 Z"/></g>
<g><path style="opacity:1" fill="#b35fc0" d="M 661.5,439.5 C 663.048,439.821 663.715,440.821 663.5,442.5C 660.752,442.598 660.086,441.598 661.5,439.5 Z"/></g>
<g><path style="opacity:1" fill="#aa4cb9" d="M 597.5,447.5 C 598.5,447.5 599.5,447.5 600.5,447.5C 600.5,448.5 600.5,449.5 600.5,450.5C 599.5,450.5 598.5,450.5 597.5,450.5C 597.5,449.5 597.5,448.5 597.5,447.5 Z"/></g>
<g><path style="opacity:1" fill="#b868c4" d="M 747.5,447.5 C 749.048,447.821 749.715,448.821 749.5,450.5C 746.752,450.598 746.086,449.598 747.5,447.5 Z"/></g>
<g><path style="opacity:1" fill="#af57bd" d="M 663.5,450.5 C 665.983,450.73 666.483,451.397 665,452.5C 663.97,452.164 663.47,451.497 663.5,450.5 Z"/></g>
<g><path style="opacity:1" fill="#af57bd" d="M 595.5,456.5 C 598.962,458.193 598.962,459.193 595.5,459.5C 595.5,458.5 595.5,457.5 595.5,456.5 Z"/></g>
<g><path style="opacity:1" fill="#b96bc5" d="M 640.5,455.5 C 641.5,455.5 642.5,455.5 643.5,455.5C 643.5,456.5 643.5,457.5 643.5,458.5C 642.5,458.5 641.5,458.5 640.5,458.5C 640.5,457.5 640.5,456.5 640.5,455.5 Z"/></g>
<g><path style="opacity:1" fill="#e5c7e9" d="M 519.5,458.5 C 524.214,458.173 528.88,458.507 533.5,459.5C 533.376,460.107 533.043,460.44 532.5,460.5C 528.167,459.833 523.833,459.167 519.5,458.5 Z"/></g>
<g><path style="opacity:1" fill="#b25dbf" d="M 741.5,457.5 C 745.31,458.754 745.31,459.754 741.5,460.5C 741.5,459.5 741.5,458.5 741.5,457.5 Z"/></g>
<g><path style="opacity:1" fill="#ad53bc" d="M 624.5,458.5 C 627.861,459.203 628.194,460.537 625.5,462.5C 624.571,461.311 624.238,459.978 624.5,458.5 Z"/></g>
<g><path style="opacity:1" fill="#a440b5" d="M 654.5,463.5 C 655.5,463.5 656.5,463.5 657.5,463.5C 657.5,464.833 657.5,466.167 657.5,467.5C 659.924,467.192 662.257,467.526 664.5,468.5C 663.653,469.845 662.487,470.845 661,471.5C 660.508,472.549 660.674,473.549 661.5,474.5C 659.955,475.452 658.288,475.785 656.5,475.5C 656.5,476.5 656.5,477.5 656.5,478.5C 655.5,478.5 654.5,478.5 653.5,478.5C 653.5,476.833 653.5,475.167 653.5,473.5C 651.076,473.808 648.743,473.474 646.5,472.5C 647.605,471.108 648.939,469.941 650.5,469C 649.663,467.989 649.33,466.822 649.5,465.5C 651.698,465.88 653.365,465.213 654.5,463.5 Z"/></g>
<g><path style="opacity:1" fill="#9f41b4" d="M 768.5,486.5 C 767.833,486.5 767.167,486.5 766.5,486.5C 764.692,483.564 762.859,480.564 761,477.5C 759.175,478.571 758.008,477.904 757.5,475.5C 755.604,474.534 753.604,474.201 751.5,474.5C 751.561,472.408 752.561,470.908 754.5,470C 752.963,468.89 752.297,467.39 752.5,465.5C 754.912,465.756 756.579,464.756 757.5,462.5C 758.833,464.167 760.167,465.833 761.5,467.5C 767.739,464.742 768.739,466.075 764.5,471.5C 765.246,472.736 765.579,474.07 765.5,475.5C 764.325,475.281 763.325,475.614 762.5,476.5C 764.523,479.889 766.523,483.222 768.5,486.5 Z"/></g>
<g><path style="opacity:1" fill="#a542b5" d="M 610.5,464.5 C 612.675,466.574 615.342,467.907 618.5,468.5C 617.687,469.814 616.687,470.981 615.5,472C 618.728,475.221 618.062,476.721 613.5,476.5C 613.5,477.833 613.5,479.167 613.5,480.5C 612.325,480.719 611.325,480.386 610.5,479.5C 609.985,477.775 609.318,476.108 608.5,474.5C 607.264,475.246 605.93,475.579 604.5,475.5C 605.092,472.873 605.425,470.206 605.5,467.5C 607.989,467.759 609.656,466.759 610.5,464.5 Z"/></g>
<g><path style="opacity:1" fill="#b360c1" d="M 634.5,464.5 C 635.5,464.5 636.5,464.5 637.5,464.5C 637.5,465.5 637.5,466.5 637.5,467.5C 636.5,467.5 635.5,467.5 634.5,467.5C 634.5,466.5 634.5,465.5 634.5,464.5 Z"/></g>
<g><path style="opacity:1" fill="#a33eb4" d="M 729.5,472.5 C 732.147,473.665 734.814,474.832 737.5,476C 735.442,477.808 735.108,479.975 736.5,482.5C 734.43,482.449 732.597,483.115 731,484.5C 729.756,482.424 727.923,481.424 725.5,481.5C 725.508,477.824 726.841,474.824 729.5,472.5 Z"/></g>
<g><path style="opacity:1" fill="#9d7cc6" d="M 370.5,482.5 C 370.5,481.833 370.167,481.5 369.5,481.5C 370.735,478.699 372.235,476.032 374,473.5C 373.956,476.923 372.79,479.923 370.5,482.5 Z"/></g>
<g><path style="opacity:1" fill="#b25dc0" d="M 714.5,477.5 C 716.625,478.368 716.791,479.368 715,480.5C 713.317,479.824 713.15,478.824 714.5,477.5 Z"/></g>
<g><path style="opacity:1" fill="#58209e" d="M 369.5,481.5 C 370.167,481.5 370.5,481.833 370.5,482.5C 357.514,509.14 344.514,535.807 331.5,562.5C 332.333,562.833 333.167,563.167 334,563.5C 345.997,560.946 357.83,557.779 369.5,554C 426.255,529.036 484.921,523.202 545.5,536.5C 547.6,539.104 549.933,541.604 552.5,544C 552.272,544.399 551.938,544.565 551.5,544.5C 487.796,531.263 426.129,537.763 366.5,564C 351.167,571.333 335.833,578.667 320.5,586C 313.741,599.439 307.074,612.939 300.5,626.5C 301.167,626.833 301.833,627.167 302.5,627.5C 337.015,619.871 371.015,610.371 404.5,599C 431.868,590.327 459.868,586.66 488.5,588C 514.808,592.387 533.642,606.554 545,630.5C 545.788,632.165 546.122,633.831 546,635.5C 520.397,610.799 489.897,601.299 454.5,607C 444.797,609.176 435.13,611.509 425.5,614C 388.51,625.581 351.177,635.914 313.5,645C 303.554,646.531 293.554,647.365 283.5,647.5C 278.305,647.821 273.305,647.487 268.5,646.5C 302.418,591.667 336.084,536.667 369.5,481.5 Z"/></g>
<g><path style="opacity:1" fill="#a43fb5" d="M 705.5,484.5 C 707.337,484.639 707.67,485.306 706.5,486.5C 705.702,486.043 705.369,485.376 705.5,484.5 Z"/></g>
<g><path style="opacity:1" fill="#b059be" d="M 750.5,484.5 C 752.048,484.821 752.715,485.821 752.5,487.5C 749.752,487.598 749.086,486.598 750.5,484.5 Z"/></g>
<g><path style="opacity:1" fill="#57209d" d="M 766.5,486.5 C 767.167,486.5 767.833,486.5 768.5,486.5C 801.275,540.448 834.275,594.281 867.5,648C 847.592,648.443 827.926,646.443 808.5,642C 773.004,632.388 737.67,622.388 702.5,612C 669.061,600.81 637.061,603.81 606.5,621C 600.8,624.854 595.467,629.188 590.5,634C 589.668,634.688 589.002,634.521 588.5,633.5C 602.312,602.673 626.145,587.34 660,587.5C 675.375,587.579 690.542,589.412 705.5,593C 740.284,602.595 774.951,612.595 809.5,623C 817.735,625.249 826.068,626.582 834.5,627C 811.421,580.344 788.755,533.51 766.5,486.5 Z"/></g>
<g><path style="opacity:1" fill="#b25dc0" d="M 755.5,487.5 C 757.625,488.368 757.791,489.368 756,490.5C 754.317,489.824 754.15,488.824 755.5,487.5 Z"/></g>
<g><path style="opacity:1" fill="#a747b7" d="M 715.5,488.5 C 717.465,488.948 717.798,489.948 716.5,491.5C 715.614,490.675 715.281,489.675 715.5,488.5 Z"/></g>
<g><path style="opacity:1" fill="#a94bb9" d="M 679.5,491.5 C 681.048,491.821 681.715,492.821 681.5,494.5C 678.752,494.598 678.086,493.598 679.5,491.5 Z"/></g>
<g><path style="opacity:1" fill="#a847b7" d="M 747.5,497.5 C 749.176,498.183 749.843,499.517 749.5,501.5C 751.167,501.5 752.833,501.5 754.5,501.5C 754.703,503.39 754.037,504.89 752.5,506C 753.38,507.356 753.714,508.856 753.5,510.5C 752.07,510.579 750.736,510.246 749.5,509.5C 746.855,513.673 745.188,513.34 744.5,508.5C 743.167,508.5 741.833,508.5 740.5,508.5C 740.383,506.516 741.05,504.85 742.5,503.5C 741.674,502.549 741.508,501.549 742,500.5C 744.209,500.011 746.042,499.011 747.5,497.5 Z"/></g>
<g><path style="opacity:1" fill="#b665c3" d="M 719.5,510.5 C 722.957,510.667 723.29,511.667 720.5,513.5C 719.614,512.675 719.281,511.675 719.5,510.5 Z"/></g>
<g><path style="opacity:1" fill="#5c26a0" d="M 462.5,620.5 C 488.586,619.52 512.586,626.02 534.5,640C 538.373,642.2 538.373,644.367 534.5,646.5C 514.91,634.528 493.577,628.195 470.5,627.5C 463.417,627.631 456.417,628.464 449.5,630C 425.842,637.886 401.842,644.553 377.5,650C 362.918,653.209 348.251,655.542 333.5,657C 370.345,649.163 406.345,638.496 441.5,625C 448.605,623.351 455.605,621.851 462.5,620.5 Z"/></g>
<g><path style="opacity:1" fill="#59239f" d="M 786.5,653.5 C 785.432,654.434 784.099,654.768 782.5,654.5C 749.799,648.977 717.799,640.81 686.5,630C 663.466,625.504 641.133,627.837 619.5,637C 613.13,640.185 606.797,643.351 600.5,646.5C 597.754,645.904 596.92,644.237 598,641.5C 623.86,623.46 652.36,617.294 683.5,623C 702.896,629.132 722.229,635.465 741.5,642C 756.312,646.62 771.312,650.453 786.5,653.5 Z"/></g>
<g><path style="opacity:1" fill="#632fa3" d="M 463.5,640.5 C 481.088,639.544 498.088,642.044 514.5,648C 483.165,642.685 451.998,643.851 421,651.5C 420.167,651.333 419.333,651.167 418.5,651C 433.261,645.885 448.261,642.385 463.5,640.5 Z"/></g>
<g><path style="opacity:1" fill="#6430a4" d="M 712.5,649.5 C 712.5,650.167 712.167,650.5 711.5,650.5C 693.307,647.268 674.974,645.268 656.5,644.5C 644.005,644.686 631.671,645.852 619.5,648C 642.721,639.589 666.388,638.255 690.5,644C 697.993,645.396 705.326,647.23 712.5,649.5 Z"/></g>
<g><path style="opacity:1" fill="#9e7dc7" d="M 268.5,646.5 C 273.305,647.487 278.305,647.821 283.5,647.5C 278.32,648.815 272.986,648.815 267.5,647.5C 267.624,646.893 267.957,646.56 268.5,646.5 Z"/></g>
<g><path style="opacity:1" fill="#a587cb" d="M 712.5,649.5 C 715.179,650.226 717.846,651.059 720.5,652C 717.28,652.32 714.28,651.82 711.5,650.5C 712.167,650.5 712.5,650.167 712.5,649.5 Z"/></g>
<g><path style="opacity:1" fill="#875eb9" d="M 786.5,653.5 C 791.738,654.985 797.072,656.152 802.5,657C 795.62,657.039 788.953,656.206 782.5,654.5C 784.099,654.768 785.432,654.434 786.5,653.5 Z"/></g>
<g><path style="opacity:1" fill="#571f9d" d="M 463.5,656.5 C 479.503,656.333 495.503,656.5 511.5,657C 514.553,657.179 517.553,657.679 520.5,658.5C 539.457,680.87 562.791,687.037 590.5,677C 599.987,672.509 607.987,666.176 614.5,658C 643.953,655.403 673.286,656.403 702.5,661C 731.625,665.948 760.291,672.781 788.5,681.5C 805.377,673.388 822.377,665.888 839.5,659C 824.167,673 808.833,687 793.5,701C 792.667,701.167 791.833,701.333 791,701.5C 742.846,686.203 693.513,677.203 643,674.5C 635.755,674.409 628.588,675.076 621.5,676.5C 610.484,690.846 595.818,698.679 577.5,700C 556.426,702.589 537.426,697.589 520.5,685C 517.462,682.297 514.795,679.297 512.5,676C 494.474,674.026 476.474,674.36 458.5,677C 419.318,681.97 380.818,690.136 343,701.5C 326.387,687.696 310.887,673.362 296.5,658.5C 312.695,666.431 329.028,674.097 345.5,681.5C 384.162,669.329 423.496,660.996 463.5,656.5 Z"/></g>
<g><path style="opacity:1" fill="#dbb3e1" d="M 325.5,722.5 C 307.326,722.17 289.326,722.503 271.5,723.5C 270.957,723.44 270.624,723.107 270.5,722.5C 288.996,721.173 307.329,721.173 325.5,722.5 Z"/></g>
<g><path style="opacity:1" fill="#dcb5e2" d="M 523.5,722.5 C 517.074,721.88 511.074,722.547 505.5,724.5C 504.596,723.791 504.263,722.791 504.5,721.5C 511.022,721.177 517.355,721.51 523.5,722.5 Z"/></g>
<g><path style="opacity:1" fill="#dbb2e1" d="M 571.5,722.5 C 566.968,722.182 562.634,722.515 558.5,723.5C 557.957,723.44 557.624,723.107 557.5,722.5C 562.318,721.188 566.985,721.188 571.5,722.5 Z"/></g>
<g><path style="opacity:1" fill="#a23bb3" d="M 325.5,722.5 C 326.645,726.311 326.812,730.311 326,734.5C 323.249,729.41 319.083,726.243 313.5,725C 304.173,724.5 294.839,724.334 285.5,724.5C 284.505,735.654 284.172,746.988 284.5,758.5C 291.354,758.824 298.021,758.491 304.5,757.5C 310.449,758.028 314.782,755.694 317.5,750.5C 318.833,756.167 318.833,761.833 317.5,767.5C 314.706,762.27 310.372,759.937 304.5,760.5C 298.021,759.509 291.354,759.176 284.5,759.5C 284.172,771.678 284.505,783.678 285.5,795.5C 286.051,798.267 287.384,800.6 289.5,802.5C 283.167,803.833 276.833,803.833 270.5,802.5C 272.527,801.307 274.027,799.64 275,797.5C 275.667,774.167 275.667,750.833 275,727.5C 273.968,725.973 272.801,724.64 271.5,723.5C 289.326,722.503 307.326,722.17 325.5,722.5 Z"/></g>
<g><path style="opacity:1" fill="#a23cb3" d="M 366.5,721.5 C 368.686,722.823 370.186,724.823 371,727.5C 380.758,751.781 391.091,775.781 402,799.5C 403.074,800.618 404.24,801.618 405.5,802.5C 399.5,803.833 393.5,803.833 387.5,802.5C 389.345,800.464 389.845,798.13 389,795.5C 385.931,788.126 382.764,780.792 379.5,773.5C 368.5,772.167 357.5,772.167 346.5,773.5C 343.902,779.459 341.402,785.459 339,791.5C 338.333,794.5 338.333,797.5 339,800.5C 339.925,801.047 340.758,801.713 341.5,802.5C 337.167,803.833 332.833,803.833 328.5,802.5C 333.121,799.27 336.288,794.936 338,789.5C 345.39,770.387 353.057,751.387 361,732.5C 361.617,729.965 361.117,727.632 359.5,725.5C 361.904,724.157 364.238,722.823 366.5,721.5 Z"/></g>
<g><path style="opacity:1" fill="#9f35b1" d="M 410.5,723.5 C 416.653,722.347 422.986,722.18 429.5,723C 427.274,724.227 425.774,726.061 425,728.5C 424.333,750.833 424.333,773.167 425,795.5C 425.082,798.748 426.582,801.081 429.5,802.5C 423.167,803.833 416.833,803.833 410.5,802.5C 412.995,800.851 414.495,798.517 415,795.5C 415.667,773.5 415.667,751.5 415,729.5C 414.434,726.771 412.934,724.771 410.5,723.5 Z"/></g>
<g><path style="opacity:1" fill="#a33db4" d="M 441.5,722.5 C 454.213,722.126 466.88,722.626 479.5,724C 493.797,727.849 497.964,736.682 492,750.5C 486.862,756.486 480.362,759.986 472.5,761C 478.327,762.162 483.16,764.996 487,769.5C 491.608,779.048 495.941,788.715 500,798.5C 501.762,801.268 504.262,802.768 507.5,803C 501.167,805.783 495.667,804.616 491,799.5C 486.076,789.316 481.409,778.983 477,768.5C 471.295,762.026 464.128,759.693 455.5,761.5C 455.333,773.505 455.5,785.505 456,797.5C 456.972,799.305 458.139,800.972 459.5,802.5C 453.5,803.833 447.5,803.833 441.5,802.5C 443.159,801.183 444.326,799.517 445,797.5C 445.667,774.167 445.667,750.833 445,727.5C 443.86,725.721 442.693,724.054 441.5,722.5 Z"/></g>
<g><path style="opacity:1" fill="#a23bb3" d="M 523.5,722.5 C 521.887,723.838 521.387,725.505 522,727.5C 528.159,739.822 534.826,751.822 542,763.5C 548,752.833 554,742.167 560,731.5C 560.867,728.479 560.367,725.812 558.5,723.5C 562.634,722.515 566.968,722.182 571.5,722.5C 567.53,725.639 564.03,729.305 561,733.5C 555,744.167 549,754.833 543,765.5C 542.091,776.892 542.424,788.225 544,799.5C 545.074,800.618 546.24,801.618 547.5,802.5C 541.167,803.833 534.833,803.833 528.5,802.5C 530.159,801.183 531.326,799.517 532,797.5C 532.667,786.833 532.667,776.167 532,765.5C 525.746,754.66 519.746,743.66 514,732.5C 511.932,728.93 509.099,726.263 505.5,724.5C 511.074,722.547 517.074,721.88 523.5,722.5 Z"/></g>
<g><path style="opacity:1" fill="#a33eb4" d="M 596.5,722.5 C 616.833,722.5 637.167,722.5 657.5,722.5C 657.666,726.514 657.499,730.514 657,734.5C 651.243,725.629 643.077,722.295 632.5,724.5C 632.333,748.836 632.5,773.169 633,797.5C 633.674,799.517 634.841,801.183 636.5,802.5C 630.167,803.833 623.833,803.833 617.5,802.5C 619.959,801.209 621.459,799.209 622,796.5C 622.5,772.502 622.667,748.502 622.5,724.5C 611.476,721.733 603.143,725.067 597.5,734.5C 596.509,730.555 596.176,726.555 596.5,722.5 Z"/></g>
<g><path style="opacity:1" fill="#a23bb3" d="M 695.5,721.5 C 697.124,721.36 698.29,722.027 699,723.5C 708.667,746.833 718.333,770.167 728,793.5C 729.588,797.255 732.088,800.255 735.5,802.5C 729.5,803.833 723.5,803.833 717.5,802.5C 719.256,800.809 719.756,798.809 719,796.5C 715.833,788.833 712.667,781.167 709.5,773.5C 698.515,772.334 687.515,772.168 676.5,773C 673.538,779.761 670.704,786.594 668,793.5C 666.925,797.067 667.758,800.067 670.5,802.5C 666.167,803.833 661.833,803.833 657.5,802.5C 661.53,800.637 664.363,797.637 666,793.5C 674.734,772.702 682.901,751.702 690.5,730.5C 690.327,728.962 689.994,727.462 689.5,726C 691.358,724.245 693.358,722.745 695.5,721.5 Z"/></g>
<g><path style="opacity:1" fill="#9f35b1" d="M 740.5,723.5 C 746.653,722.347 752.986,722.18 759.5,723C 757.274,724.227 755.774,726.061 755,728.5C 754.177,752.209 754.344,775.876 755.5,799.5C 756.025,800.192 756.692,800.692 757.5,801C 765.5,801.667 773.5,801.667 781.5,801C 787.501,799.664 791.668,796.164 794,790.5C 794.499,794.821 794.666,799.154 794.5,803.5C 776.488,803.833 758.488,803.5 740.5,802.5C 742.995,800.851 744.495,798.517 745,795.5C 745.667,773.5 745.667,751.5 745,729.5C 744.434,726.771 742.934,724.771 740.5,723.5 Z"/></g>
<g><path style="opacity:1" fill="#a038b2" d="M 837.5,761.5 C 831.021,760.509 824.354,760.176 817.5,760.5C 817.171,773.344 817.505,786.011 818.5,798.5C 818.414,799.496 818.748,800.329 819.5,801C 828.5,801.667 837.5,801.667 846.5,801C 853.573,798.928 858.406,794.428 861,787.5C 861.315,792.838 861.148,798.172 860.5,803.5C 841.488,803.833 822.488,803.5 803.5,802.5C 805.995,800.851 807.495,798.517 808,795.5C 808.667,773.5 808.667,751.5 808,729.5C 807.31,726.804 805.81,724.637 803.5,723C 821.497,722.5 839.497,722.333 857.5,722.5C 858.332,727.481 858.498,732.481 858,737.5C 854.358,729.522 848.191,725.022 839.5,724C 832.174,723.5 824.841,723.334 817.5,723.5C 817.5,735.5 817.5,747.5 817.5,759.5C 827.3,760.027 836.966,759.194 846.5,757C 848.359,755.442 849.859,753.609 851,751.5C 851.667,757.167 851.667,762.833 851,768.5C 848.157,763.148 843.657,760.815 837.5,761.5 Z"/></g>
<g><path style="opacity:1" fill="#c98bd2" d="M 285.5,724.5 C 285.5,735.5 285.5,746.5 285.5,757.5C 291.833,757.5 298.167,757.5 304.5,757.5C 298.021,758.491 291.354,758.824 284.5,758.5C 284.172,746.988 284.505,735.654 285.5,724.5 Z"/></g>
<g><path style="opacity:1" fill="#fefdfe" d="M 455.5,724.5 C 465.89,722.425 474.723,725.091 482,732.5C 486.401,741.801 484.901,749.968 477.5,757C 470.339,759.178 463.005,760.012 455.5,759.5C 455.5,747.833 455.5,736.167 455.5,724.5 Z"/></g>
<g><path style="opacity:1" fill="#fdfbfd" d="M 377.5,769.5 C 367.833,770.833 358.167,770.833 348.5,769.5C 352.844,757.302 357.677,745.302 363,733.5C 368.332,745.336 373.165,757.336 377.5,769.5 Z"/></g>
<g><path style="opacity:1" fill="#fdfbfd" d="M 707.5,769.5 C 697.681,770.494 687.681,770.827 677.5,770.5C 681.953,758.262 686.953,746.262 692.5,734.5C 698.321,745.81 703.321,757.476 707.5,769.5 Z"/></g>
<g><path style="opacity:1" fill="#c98bd2" d="M 304.5,760.5 C 298.167,760.5 291.833,760.5 285.5,760.5C 285.5,772.167 285.5,783.833 285.5,795.5C 284.505,783.678 284.172,771.678 284.5,759.5C 291.354,759.176 298.021,759.509 304.5,760.5 Z"/></g>
<g><path style="opacity:1" fill="#eedbf1" d="M 837.5,761.5 C 831.167,761.5 824.833,761.5 818.5,761.5C 818.5,773.833 818.5,786.167 818.5,798.5C 817.505,786.011 817.171,773.344 817.5,760.5C 824.354,760.176 831.021,760.509 837.5,761.5 Z"/></g>
<g><path style="opacity:1" fill="#d8aadd" d="M 348.5,769.5 C 358.167,770.833 367.833,770.833 377.5,769.5C 378.043,769.56 378.376,769.893 378.5,770.5C 368.167,771.833 357.833,771.833 347.5,770.5C 347.624,769.893 347.957,769.56 348.5,769.5 Z"/></g>
<g><path style="opacity:1" fill="#d6a7dc" d="M 707.5,769.5 C 708.043,769.56 708.376,769.893 708.5,770.5C 698.007,771.823 687.674,771.823 677.5,770.5C 687.681,770.827 697.681,770.494 707.5,769.5 Z"/></g>
<g><path style="opacity:1" fill="#632fa4" d="M 595.5,817.5 C 599.637,817.146 603.637,817.646 607.5,819C 609.393,821.917 609.893,825.084 609,828.5C 607.506,829.747 606.006,829.747 604.5,828.5C 608.154,822.975 606.821,819.642 600.5,818.5C 594.545,819.713 593.045,823.046 596,828.5C 601.845,832.257 606.845,836.924 611,842.5C 612.132,850.712 608.465,855.046 600,855.5C 591.474,853.784 588.64,848.784 591.5,840.5C 593.167,839.167 594.833,839.167 596.5,840.5C 590.784,849.957 593.45,854.123 604.5,853C 607.886,849.627 608.386,845.794 606,841.5C 600.667,837.5 596,832.833 592,827.5C 591.333,825.5 591.333,823.5 592,821.5C 593.376,820.295 594.542,818.962 595.5,817.5 Z"/></g>
<g><path style="opacity:1" fill="#6532a5" d="M 306.5,853.5 C 305.791,854.404 304.791,854.737 303.5,854.5C 293.957,852.115 288.957,845.948 288.5,836C 288.676,826.978 293.009,820.978 301.5,818C 306.904,817.228 312.238,817.561 317.5,819C 320.179,820.346 322.179,822.346 323.5,825C 323.22,826.395 322.553,827.562 321.5,828.5C 314.259,816.824 305.426,815.49 295,824.5C 290.612,834.365 292.112,843.198 299.5,851C 301.65,852.411 303.984,853.245 306.5,853.5 Z"/></g>
<g><path style="opacity:1" fill="#a181c9" d="M 363.5,826.5 C 361.833,825.167 360.167,825.167 358.5,826.5C 357.957,826.44 357.624,826.107 357.5,825.5C 359.833,824.167 362.167,824.167 364.5,825.5C 364.376,826.107 364.043,826.44 363.5,826.5 Z"/></g>
<g><path style="opacity:1" fill="#9f7dc7" d="M 420.5,825.5 C 427.5,824.167 434.5,824.167 441.5,825.5C 439.585,825.216 437.919,825.549 436.5,826.5C 435.5,826.5 434.5,826.5 433.5,826.5C 431.833,825.167 430.167,825.167 428.5,826.5C 427.5,826.5 426.5,826.5 425.5,826.5C 424.081,825.549 422.415,825.216 420.5,825.5 Z"/></g>
<g><path style="opacity:1" fill="#9f7dc7" d="M 629.5,825.5 C 636.5,824.167 643.5,824.167 650.5,825.5C 648.585,825.216 646.919,825.549 645.5,826.5C 644.5,826.5 643.5,826.5 642.5,826.5C 640.833,825.167 639.167,825.167 637.5,826.5C 636.5,826.5 635.5,826.5 634.5,826.5C 633.081,825.549 631.415,825.216 629.5,825.5 Z"/></g>
<g><path style="opacity:1" fill="#9f7dc7" d="M 731.5,825.5 C 730.508,825.328 729.842,825.662 729.5,826.5C 728.5,826.5 727.5,826.5 726.5,826.5C 725.903,825.861 725.07,825.528 724,825.5C 722.624,825.684 721.791,826.351 721.5,827.5C 720.596,826.791 720.263,825.791 720.5,824.5C 724.371,824.185 728.038,824.518 731.5,825.5 Z"/></g>
<g><path style="opacity:1" fill="#9b79c5" d="M 802.5,825.5 C 800.585,825.216 798.919,825.549 797.5,826.5C 795.833,825.167 794.167,825.167 792.5,826.5C 790.833,825.167 789.167,825.167 787.5,826.5C 786.957,826.44 786.624,826.107 786.5,825.5C 791.986,824.185 797.32,824.185 802.5,825.5 Z"/></g>
<g><path style="opacity:1" fill="#6735a6" d="M 358.5,826.5 C 360.167,825.167 361.833,825.167 363.5,826.5C 362.967,835.195 362.134,843.862 361,852.5C 357.405,854.456 353.572,854.956 349.5,854C 348.333,853.5 347.5,852.667 347,851.5C 346.973,842.384 346.139,833.384 344.5,824.5C 346.604,824.201 348.604,824.534 350.5,825.5C 348.965,830.181 348.298,835.014 348.5,840C 348.667,843.5 348.833,847 349,850.5C 349.374,851.416 349.874,852.25 350.5,853C 353.669,853.978 356.503,853.478 359,851.5C 359.773,843.118 359.606,834.785 358.5,826.5 Z"/></g>
<g><path style="opacity:1" fill="#6330a4" d="M 420.5,825.5 C 422.415,825.216 424.081,825.549 425.5,826.5C 424.166,828.466 422.832,830.466 421.5,832.5C 420.526,830.257 420.192,827.924 420.5,825.5 Z"/></g>
<g><path style="opacity:1" fill="#6d3daa" d="M 428.5,826.5 C 430.167,825.167 431.833,825.167 433.5,826.5C 432.835,829.984 432.501,833.651 432.5,837.5C 432.322,842.965 432.989,848.298 434.5,853.5C 432.604,854.466 430.604,854.799 428.5,854.5C 429.702,845.014 429.702,835.681 428.5,826.5 Z"/></g>
<g><path style="opacity:1" fill="#602ca2" d="M 436.5,826.5 C 437.919,825.549 439.585,825.216 441.5,825.5C 441.808,827.924 441.474,830.257 440.5,832.5C 439.34,830.289 438.007,828.289 436.5,826.5 Z"/></g>
<g><path style="opacity:1" fill="#6431a4" d="M 532.5,827.5 C 532.5,826.5 532.5,825.5 532.5,824.5C 534.5,824.5 536.5,824.5 538.5,824.5C 536.701,834.441 537.701,844.108 541.5,853.5C 539.167,854.833 536.833,854.833 534.5,853.5C 535.852,850.832 536.519,847.999 536.5,845C 536.041,840.828 535.541,836.662 535,832.5C 534.901,830.347 534.067,828.681 532.5,827.5 Z"/></g>
<g><path style="opacity:1" fill="#6330a4" d="M 629.5,825.5 C 631.415,825.216 633.081,825.549 634.5,826.5C 633.166,828.466 631.832,830.466 630.5,832.5C 629.526,830.257 629.192,827.924 629.5,825.5 Z"/></g>
<g><path style="opacity:1" fill="#6d3daa" d="M 637.5,826.5 C 639.167,825.167 640.833,825.167 642.5,826.5C 641.835,829.984 641.501,833.651 641.5,837.5C 641.322,842.965 641.989,848.298 643.5,853.5C 641.604,854.466 639.604,854.799 637.5,854.5C 638.702,845.014 638.702,835.681 637.5,826.5 Z"/></g>
<g><path style="opacity:1" fill="#602ca2" d="M 645.5,826.5 C 646.919,825.549 648.585,825.216 650.5,825.5C 650.808,827.924 650.474,830.257 649.5,832.5C 648.34,830.289 647.007,828.289 645.5,826.5 Z"/></g>
<g><path style="opacity:1" fill="#5e29a1" d="M 760.5,824.5 C 762.5,824.5 764.5,824.5 766.5,824.5C 763.835,834.518 763.835,844.518 766.5,854.5C 764.5,854.5 762.5,854.5 760.5,854.5C 763.167,844.501 763.167,834.501 760.5,824.5 Z"/></g>
<g><path style="opacity:1" fill="#6330a4" d="M 792.5,826.5 C 791.662,826.842 791.328,827.508 791.5,828.5C 790.167,836.167 790.167,843.833 791.5,851.5C 791.611,852.117 791.944,852.617 792.5,853C 797.722,854.556 801.055,852.723 802.5,847.5C 803.474,849.743 803.808,852.076 803.5,854.5C 797.794,854.829 792.128,854.495 786.5,853.5C 787,852.5 787.5,851.5 788,850.5C 788.77,842.452 788.603,834.452 787.5,826.5C 789.167,825.167 790.833,825.167 792.5,826.5 Z"/></g>
<g><path style="opacity:1" fill="#6c3ba9" d="M 797.5,826.5 C 798.919,825.549 800.585,825.216 802.5,825.5C 803.797,827.693 803.797,830.027 802.5,832.5C 801.573,830.887 800.739,829.221 800,827.5C 799.329,826.748 798.496,826.414 797.5,826.5 Z"/></g>
<g><path style="opacity:1" fill="#6531a5" d="M 388.5,824.5 C 392.839,823.846 396.673,824.846 400,827.5C 400.667,829.5 400.667,831.5 400,833.5C 398.817,834.731 397.651,834.731 396.5,833.5C 399.925,828.566 398.591,825.899 392.5,825.5C 388.011,825.833 386.511,828.167 388,832.5C 392.853,836.263 397.52,840.263 402,844.5C 402.825,851.029 399.825,854.696 393,855.5C 385.728,854.575 382.728,850.575 384,843.5C 385.494,842.253 386.994,842.253 388.5,843.5C 384.738,849.368 386.238,852.701 393,853.5C 395.034,853.646 396.701,852.98 398,851.5C 398.667,849.167 398.667,846.833 398,844.5C 393.204,840.947 388.87,836.947 385,832.5C 383.78,828.707 384.947,826.04 388.5,824.5 Z"/></g>
<g><path style="opacity:1" fill="#6937a7" d="M 679.5,824.5 C 696.922,823.076 703.755,830.743 700,847.5C 698.235,850.473 695.735,852.64 692.5,854C 674.673,857.169 667.173,850.002 670,832.5C 672.325,828.765 675.491,826.099 679.5,824.5 Z"/></g>
<g><path style="opacity:1" fill="#fcfbfd" d="M 681.5,825.5 C 694.88,826.066 700.38,833.066 698,846.5C 693.067,853.491 686.567,855.325 678.5,852C 671.273,846.007 669.773,838.841 674,830.5C 676.17,828.177 678.67,826.51 681.5,825.5 Z"/></g>
<g><path style="opacity:1" fill="#6532a5" d="M 834.5,854.5 C 833.833,854.5 833.5,854.167 833.5,853.5C 838.151,852.826 839.651,850.159 838,845.5C 833.708,841.509 829.375,837.509 825,833.5C 823.617,827.376 826.117,824.376 832.5,824.5C 839.09,824.407 841.423,827.407 839.5,833.5C 838.167,834.833 836.833,834.833 835.5,833.5C 839.412,830.892 839.412,828.392 835.5,826C 828.794,824.538 826.46,827.038 828.5,833.5C 831.147,836.157 834.147,838.323 837.5,840C 843.087,843.715 843.753,848.048 839.5,853C 837.975,854.009 836.308,854.509 834.5,854.5 Z"/></g>
<g><path style="opacity:1" fill="#6532a5" d="M 726.5,826.5 C 725.778,826.918 725.278,827.584 725,828.5C 724.501,833.823 724.334,839.156 724.5,844.5C 734.712,845.119 738.545,840.452 736,830.5C 734.429,828.077 732.263,826.744 729.5,826.5C 729.842,825.662 730.508,825.328 731.5,825.5C 739.358,827.882 741.858,832.882 739,840.5C 737.127,842.709 734.96,844.542 732.5,846C 735.645,847.978 738.312,850.478 740.5,853.5C 738.926,854.631 737.259,854.798 735.5,854C 733.958,848.942 730.625,846.442 725.5,846.5C 725.575,849.206 725.908,851.873 726.5,854.5C 724.396,854.799 722.396,854.466 720.5,853.5C 722.762,844.924 723.095,836.257 721.5,827.5C 721.791,826.351 722.624,825.684 724,825.5C 725.07,825.528 725.903,825.861 726.5,826.5 Z"/></g>
<g><path style="opacity:1" fill="#f6f3fa" d="M 726.5,826.5 C 727.5,826.5 728.5,826.5 729.5,826.5C 732.263,826.744 734.429,828.077 736,830.5C 738.545,840.452 734.712,845.119 724.5,844.5C 724.334,839.156 724.501,833.823 725,828.5C 725.278,827.584 725.778,826.918 726.5,826.5 Z"/></g>
<g><path style="opacity:1" fill="#9069be" d="M 532.5,827.5 C 531.405,832.784 529.739,837.784 527.5,842.5C 527.167,842.5 526.833,842.5 526.5,842.5C 528.128,837.27 530.128,832.27 532.5,827.5 Z"/></g>
<g><path style="opacity:1" fill="#6735a6" d="M 469.5,824.5 C 474.58,824.25 479.58,824.75 484.5,826C 492.393,830.93 494.56,837.763 491,846.5C 489.167,849.667 486.667,852.167 483.5,854C 467.073,857.56 459.239,851.06 460,834.5C 462.022,829.98 465.189,826.647 469.5,824.5 Z"/></g>
<g><path style="opacity:1" fill="#fdfcfd" d="M 471.5,825.5 C 484.992,825.491 490.826,832.158 489,845.5C 487.73,849.77 484.896,852.27 480.5,853C 467.092,853.583 461.259,847.083 463,833.5C 465.074,829.923 467.907,827.256 471.5,825.5 Z"/></g>
<g><path style="opacity:1" fill="#c1abdb" d="M 515.5,832.5 C 515.263,833.791 515.596,834.791 516.5,835.5C 516.768,837.099 516.434,838.432 515.5,839.5C 515.737,838.209 515.404,837.209 514.5,836.5C 514.232,834.901 514.566,833.568 515.5,832.5 Z"/></g>
<g><path style="opacity:1" fill="#6431a5" d="M 526.5,842.5 C 526.833,842.5 527.167,842.5 527.5,842.5C 527.299,845.728 527.633,848.895 528.5,852C 528.167,852.5 527.833,853 527.5,853.5C 526.264,852.754 524.93,852.421 523.5,852.5C 523.364,844.563 521.198,837.23 517,830.5C 516.506,832.134 516.34,833.801 516.5,835.5C 515.596,834.791 515.263,833.791 515.5,832.5C 515.854,829.579 514.854,827.246 512.5,825.5C 514.421,824.359 516.421,824.192 518.5,825C 520.413,831.741 522.913,838.241 526,844.5C 526.464,843.906 526.631,843.239 526.5,842.5 Z"/></g>
<g><path style="opacity:1" fill="#8961ba" d="M 791.5,828.5 C 791.5,830.833 791.5,833.167 791.5,835.5C 794.547,836.145 796.713,835.145 798,832.5C 798.874,835.379 798.54,838.045 797,840.5C 796.517,839.552 796.351,838.552 796.5,837.5C 794.833,837.5 793.167,837.5 791.5,837.5C 791.5,842.167 791.5,846.833 791.5,851.5C 790.167,843.833 790.167,836.167 791.5,828.5 Z"/></g>
<g><path style="opacity:1" fill="#622ea3" d="M 830.5,853.5 C 830.5,854.167 830.167,854.5 829.5,854.5C 824.013,852.862 822.18,849.195 824,843.5C 825.494,842.253 826.994,842.253 828.5,843.5C 824.104,847.909 824.77,851.243 830.5,853.5 Z"/></g>
<g><path style="opacity:1" fill="#6532a5" d="M 313.5,854.5 C 311.901,854.768 310.568,854.434 309.5,853.5C 316.107,853.065 320.607,849.732 323,843.5C 324.678,844.466 325.345,845.799 325,847.5C 321.827,850.999 317.994,853.333 313.5,854.5 Z"/></g>
<g><path style="opacity:1" fill="#7040ab" d="M 514.5,836.5 C 515.404,837.209 515.737,838.209 515.5,839.5C 515.337,844.547 515.671,849.547 516.5,854.5C 514.712,854.785 513.045,854.452 511.5,853.5C 513.618,848.03 514.618,842.363 514.5,836.5 Z"/></g>
<g><path style="opacity:1" fill="#9f7dc7" d="M 306.5,853.5 C 307.5,853.5 308.5,853.5 309.5,853.5C 310.568,854.434 311.901,854.768 313.5,854.5C 310.167,855.833 306.833,855.833 303.5,854.5C 304.791,854.737 305.791,854.404 306.5,853.5 Z"/></g>
<g><path style="opacity:1" fill="#ac90cf" d="M 830.5,853.5 C 831.5,853.5 832.5,853.5 833.5,853.5C 833.5,854.167 833.833,854.5 834.5,854.5C 832.833,855.833 831.167,855.833 829.5,854.5C 830.167,854.5 830.5,854.167 830.5,853.5 Z"/></g>
</svg>
