<?xml version="1.0" encoding="UTF-8"?>
<!DOCTYPE svg PUBLIC "-//W3C//DTD SVG 1.1//EN" "http://www.w3.org/Graphics/SVG/1.1/DTD/svg11.dtd">
<svg xmlns="http://www.w3.org/2000/svg" version="1.1" width="500px" height="500px" style="shape-rendering:geometricPrecision; text-rendering:geometricPrecision; image-rendering:optimizeQuality; fill-rule:evenodd; clip-rule:evenodd" xmlns:xlink="http://www.w3.org/1999/xlink">
<g><path style="opacity:1" fill="#fdfdfd" d="M -0.5,-0.5 C 166.167,-0.5 332.833,-0.5 499.5,-0.5C 499.5,166.167 499.5,332.833 499.5,499.5C 332.833,499.5 166.167,499.5 -0.5,499.5C -0.5,332.833 -0.5,166.167 -0.5,-0.5 Z"/></g>
<g><path style="opacity:1" fill="#949494" d="M 86.5,61.5 C 84.9119,59.4727 84.4119,57.1394 85,54.5C 85.977,56.74 86.477,59.0733 86.5,61.5 Z"/></g>
<g><path style="opacity:1" fill="#070707" d="M 86.5,61.5 C 102.408,99.4147 124.408,133.415 152.5,163.5C 157.905,144.678 167.405,128.344 181,114.5C 177.751,122.308 173.418,129.642 168,136.5C 162.562,145.984 158.395,155.984 155.5,166.5C 166.226,177.723 176.393,189.39 186,201.5C 190.624,208.414 194.457,215.748 197.5,223.5C 181.004,211.845 166.171,198.179 153,182.5C 152.308,183.025 151.808,183.692 151.5,184.5C 165.929,199.6 181.262,213.6 197.5,226.5C 203.12,231.784 208.787,237.117 214.5,242.5C 214.833,242.167 215.167,241.833 215.5,241.5C 213.055,236.052 211.388,230.385 210.5,224.5C 210.198,221.941 210.532,219.607 211.5,217.5C 214.368,229.266 218.535,240.6 224,251.5C 235.167,262.667 246.333,273.833 257.5,285C 250.942,282.739 244.276,280.406 237.5,278C 201.444,271.34 166.777,275.674 133.5,291C 125.833,294.833 118.167,298.667 110.5,302.5C 106.245,310.009 102.245,317.676 98.5,325.5C 98.8333,325.833 99.1667,326.167 99.5,326.5C 124.175,319.776 148.841,312.943 173.5,306C 184.72,303.616 196.053,302.949 207.5,304C 222.764,307.281 232.931,316.115 238,330.5C 226.204,319.564 212.204,313.897 196,313.5C 186.313,314.296 176.813,316.129 167.5,319C 150.343,324.608 133.01,329.608 115.5,334C 103.659,337.254 91.6591,338.421 79.5,337.5C 99,305.833 118.5,274.167 138,242.5C 131.167,257.841 124,273.174 116.5,288.5C 117.5,288.833 118.5,289.167 119.5,289.5C 133.464,285.901 147.13,281.401 160.5,276C 186.396,269.451 212.396,268.785 238.5,274C 227.428,260.926 215.095,249.26 201.5,239C 195.463,235.877 189.13,233.543 182.5,232C 172.48,231.117 162.48,230.117 152.5,229C 142.053,223.885 132.72,217.219 124.5,209C 129.115,210.032 133.782,211.198 138.5,212.5C 140.225,213.905 142.225,214.405 144.5,214C 142.807,213.153 141.14,212.32 139.5,211.5C 131.194,207.012 122.86,202.512 114.5,198C 99.3051,176.27 88.6384,152.437 82.5,126.5C 82.8333,126.167 83.1667,125.833 83.5,125.5C 88.3897,128.774 93.3897,131.774 98.5,134.5C 93.1955,129.366 87.6955,124.366 82,119.5C 78.3516,100.365 78.8516,81.3652 83.5,62.5C 95.5559,108.294 117.723,148.294 150,182.5C 150.167,181.833 150.333,181.167 150.5,180.5C 128.656,154.181 110.823,125.181 97,93.5C 92.5925,83.1111 89.0925,72.4444 86.5,61.5 Z"/></g>
<g><path style="opacity:1" fill="#121212" d="M 255.5,74.5 C 266.084,74.8498 276.417,76.6831 286.5,80C 288.555,80.6872 290.221,81.8539 291.5,83.5C 290.667,83.8333 289.833,84.1667 289,84.5C 278.229,80.3124 267.062,77.979 255.5,77.5C 255.5,76.5 255.5,75.5 255.5,74.5 Z"/></g>
<g><path style="opacity:1" fill="#0d0d0d" d="M 323.5,74.5 C 324.5,74.5 325.5,74.5 326.5,74.5C 325.885,81.1309 324.551,87.6309 322.5,94C 322.833,94.5 323.167,95 323.5,95.5C 326.938,93.5652 329.938,91.0652 332.5,88C 333.944,87.2195 335.277,87.3861 336.5,88.5C 333.542,93.1256 329.876,97.1256 325.5,100.5C 326.167,100.833 326.833,101.167 327.5,101.5C 332.987,98.9997 338.654,98.3331 344.5,99.5C 344.291,100.086 343.957,100.586 343.5,101C 338.298,102.213 333.298,103.88 328.5,106C 333.501,108.779 338.834,110.779 344.5,112C 345.337,113.011 345.67,114.178 345.5,115.5C 339.167,114.557 333,112.891 327,110.5C 325.743,110.85 325.409,111.517 326,112.5C 330.319,115.778 333.319,119.778 335,124.5C 333.493,125.535 331.993,125.368 330.5,124C 329.695,122.028 328.361,120.528 326.5,119.5C 326.167,120 325.833,120.5 325.5,121C 326.611,124.301 327.944,127.468 329.5,130.5C 328.919,132.724 327.586,133.557 325.5,133C 322.524,127.547 319.691,122.047 317,116.5C 315.169,121.64 313.835,126.973 313,132.5C 312.29,133.973 311.124,134.64 309.5,134.5C 310.337,127.836 310.837,121.169 311,114.5C 307.167,118.333 303.333,122.167 299.5,126C 297.783,127.559 295.783,128.392 293.5,128.5C 293.343,127.127 293.51,125.793 294,124.5C 298.5,120 303,115.5 307.5,111C 301.5,112 295.5,113 289.5,114C 289.043,113.586 288.709,113.086 288.5,112.5C 289.5,111.667 290.5,110.833 291.5,110C 296.801,109.079 301.801,107.413 306.5,105C 301.239,103.135 295.905,101.469 290.5,100C 287.523,97.8806 287.856,96.7139 291.5,96.5C 296.019,97.4214 300.519,98.4214 305,99.5C 305.5,99.1667 306,98.8333 306.5,98.5C 303.167,94.8333 299.833,91.1667 296.5,87.5C 297.348,85.7172 298.681,85.2172 300.5,86C 303.037,88.872 305.87,91.372 309,93.5C 309.258,88.4348 308.758,83.4348 307.5,78.5C 309.144,78.2865 310.644,78.6198 312,79.5C 313.403,83.8763 314.903,88.2096 316.5,92.5C 319.201,86.7442 321.535,80.7442 323.5,74.5 Z"/></g>
<g><path style="opacity:1" fill="#0f0f0f" d="M 241.5,75.5 C 244.572,75.1826 247.572,75.5159 250.5,76.5C 247.282,78.3721 243.948,78.7054 240.5,77.5C 240.863,76.8165 241.196,76.1499 241.5,75.5 Z"/></g>
<g><path style="opacity:1" fill="#121212" d="M 226.5,79.5 C 229.187,79.3359 231.854,79.5026 234.5,80C 228.5,83 222.5,86 216.5,89C 212.502,89.7109 211.835,88.7109 214.5,86C 218.722,84.0591 222.722,81.8924 226.5,79.5 Z"/></g>
<g><path style="opacity:1" fill="#1c1c1c" d="M 266.5,87.5 C 269.178,88.6184 271.845,88.6184 274.5,87.5C 276.33,87.7763 277.997,88.443 279.5,89.5C 275.114,90.0625 270.78,90.3959 266.5,90.5C 266.5,89.5 266.5,88.5 266.5,87.5 Z"/></g>
<g><path style="opacity:1" fill="#161616" d="M 259.5,88.5 C 260.675,88.281 261.675,88.6143 262.5,89.5C 260.948,90.7979 259.948,90.4646 259.5,88.5 Z"/></g>
<g><path style="opacity:1" fill="#171717" d="M 250.5,89.5 C 256.898,90.1018 256.898,91.4352 250.5,93.5C 249.374,92.1916 249.374,90.8583 250.5,89.5 Z"/></g>
<g><path style="opacity:1" fill="#212121" d="M 283.5,88.5 C 286.316,88.5442 288.649,89.5442 290.5,91.5C 287.414,93.0418 284.747,92.5418 282.5,90C 283.056,89.6174 283.389,89.1174 283.5,88.5 Z"/></g>
<g><path style="opacity:1" fill="#181818" d="M 205.5,91.5 C 206.873,91.3433 208.207,91.51 209.5,92C 207.924,94.0771 205.924,95.5771 203.5,96.5C 202.417,95.635 202.251,94.635 203,93.5C 203.995,92.9341 204.828,92.2674 205.5,91.5 Z"/></g>
<g><path style="opacity:1" fill="#242424" d="M 242.5,92.5 C 245.957,92.6672 246.29,93.6672 243.5,95.5C 242.614,94.675 242.281,93.675 242.5,92.5 Z"/></g>
<g><path style="opacity:1" fill="#222222" d="M 237.5,94.5 C 240.957,94.6672 241.29,95.6672 238.5,97.5C 237.614,96.675 237.281,95.675 237.5,94.5 Z"/></g>
<g><path style="opacity:1" fill="#141414" d="M 271.5,95.5 C 275.833,95.5 280.167,95.5 284.5,95.5C 284.5,96.5 284.5,97.5 284.5,98.5C 278.369,98.3593 272.369,99.1926 266.5,101C 260.389,103.42 254.389,105.92 248.5,108.5C 248.238,107.022 248.571,105.689 249.5,104.5C 256.705,100.888 264.038,97.8881 271.5,95.5 Z"/></g>
<g><path style="opacity:1" fill="#1d1d1d" d="M 229.5,98.5 C 234.137,98.4925 234.303,99.8258 230,102.5C 226.985,101.641 226.819,100.308 229.5,98.5 Z"/></g>
<g><path style="opacity:1" fill="#171717" d="M 195.5,99.5 C 197.028,99.5173 197.528,100.184 197,101.5C 194.5,104 192,106.5 189.5,109C 188.056,109.781 186.723,109.614 185.5,108.5C 188.257,104.737 191.59,101.737 195.5,99.5 Z"/></g>
<g><path style="opacity:1" fill="#101010" d="M 281.5,101.5 C 282.978,101.238 284.311,101.571 285.5,102.5C 284.833,102.833 284.167,103.167 283.5,103.5C 282.287,103.253 281.62,102.586 281.5,101.5 Z"/></g>
<g><path style="opacity:1" fill="#1b1b1b" d="M 273.5,102.5 C 275.686,102.511 276.519,103.511 276,105.5C 274.186,106.76 272.353,106.76 270.5,105.5C 271.34,104.265 272.34,103.265 273.5,102.5 Z"/></g>
<g><path style="opacity:1" fill="#141414" d="M 221.5,104.5 C 223.355,104.272 224.188,104.939 224,106.5C 222.167,108.333 220.333,110.167 218.5,112C 217.365,112.749 216.365,112.583 215.5,111.5C 216.833,108.507 218.833,106.173 221.5,104.5 Z"/></g>
<g><path style="opacity:1" fill="#191919" d="M 265.5,106.5 C 268.013,108.013 267.68,109.346 264.5,110.5C 264.167,110 263.833,109.5 263.5,109C 264.056,107.989 264.722,107.156 265.5,106.5 Z"/></g>
<g><path style="opacity:1" fill="#171717" d="M 242.5,109.5 C 244.028,109.517 244.528,110.184 244,111.5C 237.958,117.375 232.124,123.375 226.5,129.5C 225.386,128.277 225.219,126.944 226,125.5C 230.734,119.264 236.234,113.931 242.5,109.5 Z"/></g>
<g><path style="opacity:1" fill="#1e1e1e" d="M 256.5,111.5 C 261.592,111.789 261.759,112.789 257,114.5C 255.317,113.824 255.15,112.824 256.5,111.5 Z"/></g>
<g><path style="opacity:1" fill="#171717" d="M 212.5,114.5 C 213.404,115.209 213.737,116.209 213.5,117.5C 209.995,117.306 209.662,116.306 212.5,114.5 Z"/></g>
<g><path style="opacity:1" fill="#161616" d="M 249.5,117.5 C 253.193,118.247 253.193,119.58 249.5,121.5C 248.374,120.192 248.374,118.858 249.5,117.5 Z"/></g>
<g><path style="opacity:1" fill="#202020" d="M 278.5,118.5 C 279.5,118.5 280.5,118.5 281.5,118.5C 281.5,119.5 281.5,120.5 281.5,121.5C 280.5,121.5 279.5,121.5 278.5,121.5C 278.5,120.5 278.5,119.5 278.5,118.5 Z"/></g>
<g><path style="opacity:1" fill="#1c1c1c" d="M 206.5,120.5 C 210.089,120.484 210.255,121.484 207,123.5C 205.317,122.824 205.15,121.824 206.5,120.5 Z"/></g>
<g><path style="opacity:1" fill="#333333" d="M 286.5,123.5 C 288.048,123.821 288.715,124.821 288.5,126.5C 285.752,126.598 285.086,125.598 286.5,123.5 Z"/></g>
<g><path style="opacity:1" fill="#1f1f1f" d="M 241.5,125.5 C 242.5,125.5 243.5,125.5 244.5,125.5C 244.756,127.912 243.756,129.579 241.5,130.5C 240.566,128.905 240.566,127.239 241.5,125.5 Z"/></g>
<g><path style="opacity:1" fill="#0f0f0f" d="M 261.5,127.5 C 262.675,127.281 263.675,127.614 264.5,128.5C 266.292,133.133 269.625,135.633 274.5,136C 270.245,139.666 269.245,144.166 271.5,149.5C 270.448,149.649 269.448,149.483 268.5,149C 267.114,143.774 263.781,141.607 258.5,142.5C 258.284,140.319 259.117,138.653 261,137.5C 261.498,134.183 261.665,130.85 261.5,127.5 Z"/></g>
<g><path style="opacity:1" fill="#131313" d="M 202.5,127.5 C 203.987,130.521 203.153,132.854 200,134.5C 199.5,134.167 199,133.833 198.5,133.5C 199.467,131.21 200.8,129.21 202.5,127.5 Z"/></g>
<g><path style="opacity:1" fill="#787878" d="M 98.5,134.5 C 99.7562,134.461 100.756,134.961 101.5,136C 100.002,136.585 99.0024,136.085 98.5,134.5 Z"/></g>
<g><path style="opacity:1" fill="#0b0b0b" d="M 235.5,134.5 C 238.144,136.66 237.811,138.66 234.5,140.5C 233.531,138.383 233.864,136.383 235.5,134.5 Z"/></g>
<g><path style="opacity:1" fill="#171717" d="M 220.5,135.5 C 221.497,135.47 222.164,135.97 222.5,137C 219.716,145.358 216.549,153.524 213,161.5C 212.056,160.737 211.556,159.737 211.5,158.5C 213.139,150.24 216.139,142.573 220.5,135.5 Z"/></g>
<g><path style="opacity:1" fill="#1f1f1f" d="M 333.5,138.5 C 334.675,138.281 335.675,138.614 336.5,139.5C 334.948,140.798 333.948,140.465 333.5,138.5 Z"/></g>
<g><path style="opacity:1" fill="#1d1d1d" d="M 195.5,139.5 C 198.041,140.623 198.041,141.956 195.5,143.5C 194.374,142.192 194.374,140.858 195.5,139.5 Z"/></g>
<g><path style="opacity:1" fill="#0f0f0f" d="M 348.5,140.5 C 350.5,140.833 352.5,141.167 354.5,141.5C 354.166,145.648 351.833,147.315 347.5,146.5C 347.833,144.5 348.167,142.5 348.5,140.5 Z"/></g>
<g><path style="opacity:1" fill="#252525" d="M 302.5,142.5 C 306.35,142.701 307.35,144.534 305.5,148C 300.231,148.633 299.231,146.799 302.5,142.5 Z"/></g>
<g><path style="opacity:1" fill="#202020" d="M 229.5,145.5 C 230.5,145.5 231.5,145.5 232.5,145.5C 232.553,148.061 231.553,150.061 229.5,151.5C 228.306,149.484 228.306,147.484 229.5,145.5 Z"/></g>
<g><path style="opacity:1" fill="#1e1e1e" d="M 281.5,146.5 C 282.5,146.5 283.5,146.5 284.5,146.5C 283.754,150.31 282.754,150.31 281.5,146.5 Z"/></g>
<g><path style="opacity:1" fill="#0e0e0e" d="M 291.5,147.5 C 292.5,147.5 293.5,147.5 294.5,147.5C 293.754,151.31 292.754,151.31 291.5,147.5 Z"/></g>
<g><path style="opacity:1" fill="#222222" d="M 191.5,147.5 C 194.063,148.998 194.063,150.665 191.5,152.5C 190.566,150.905 190.566,149.239 191.5,147.5 Z"/></g>
<g><path style="opacity:1" fill="#090909" d="M 332.5,149.5 C 335.661,150.47 338.494,152.137 341,154.5C 340.762,158.109 340.595,161.775 340.5,165.5C 339.448,165.649 338.448,165.483 337.5,165C 335.539,162.365 333.039,160.531 330,159.5C 331.989,156.669 332.822,153.336 332.5,149.5 Z"/></g>
<g><path style="opacity:1" fill="#161616" d="M 257.5,151.5 C 259.977,151.051 261.977,151.717 263.5,153.5C 261.937,156.029 259.604,157.029 256.5,156.5C 256.629,154.784 256.962,153.117 257.5,151.5 Z"/></g>
<g><path style="opacity:1" fill="#101010" d="M 226.5,155.5 C 228.951,157.21 228.951,159.21 226.5,161.5C 225.306,159.484 225.306,157.484 226.5,155.5 Z"/></g>
<g><path style="opacity:1" fill="#131313" d="M 188.5,157.5 C 189.586,157.62 190.253,158.287 190.5,159.5C 189.667,162.833 188.833,166.167 188,169.5C 187.586,169.957 187.086,170.291 186.5,170.5C 185.353,168.235 185.186,165.902 186,163.5C 187.122,161.593 187.955,159.593 188.5,157.5 Z"/></g>
<g><path style="opacity:1" fill="#030303" d="M 285.5,160.5 C 287.337,160.639 287.67,161.306 286.5,162.5C 285.702,162.043 285.369,161.376 285.5,160.5 Z"/></g>
<g><path style="opacity:1" fill="#101010" d="M 295.5,160.5 C 297.167,160.5 298.833,160.5 300.5,160.5C 300.574,164.701 298.741,166.035 295,164.5C 294.421,163.072 294.588,161.738 295.5,160.5 Z"/></g>
<g><path style="opacity:1" fill="#111111" d="M 316.5,160.5 C 318.117,161.038 319.784,161.371 321.5,161.5C 321.574,168.142 319.241,169.142 314.5,164.5C 315.18,163.14 315.847,161.807 316.5,160.5 Z"/></g>
<g><path style="opacity:1" fill="#191919" d="M 247.5,165.5 C 250.957,165.667 251.29,166.667 248.5,168.5C 247.614,167.675 247.281,166.675 247.5,165.5 Z"/></g>
<g><path style="opacity:1" fill="#161616" d="M 210.5,166.5 C 211.777,167.694 212.444,169.36 212.5,171.5C 211.584,179.158 210.751,186.824 210,194.5C 209.586,194.957 209.086,195.291 208.5,195.5C 206.86,185.645 207.527,175.978 210.5,166.5 Z"/></g>
<g><path style="opacity:1" fill="#030303" d="M 332.5,166.5 C 334.465,166.948 334.798,167.948 333.5,169.5C 332.614,168.675 332.281,167.675 332.5,166.5 Z"/></g>
<g><path style="opacity:1" fill="#1f1f1f" d="M 223.5,167.5 C 225.976,169.121 226.142,171.121 224,173.5C 222.2,171.635 222.034,169.635 223.5,167.5 Z"/></g>
<g><path style="opacity:1" fill="#2c2c2c" d="M 344.5,169.5 C 345.5,169.5 346.5,169.5 347.5,169.5C 346.754,173.31 345.754,173.31 344.5,169.5 Z"/></g>
<g><path style="opacity:1" fill="#141414" d="M 263.5,170.5 C 265.97,171.36 266.137,172.694 264,174.5C 262.232,173.318 262.065,171.985 263.5,170.5 Z"/></g>
<g><path style="opacity:1" fill="#0d0d0d" d="M 330.5,175.5 C 331.496,175.414 332.329,175.748 333,176.5C 334.248,179.579 336.081,182.246 338.5,184.5C 341.732,185.588 344.732,186.921 347.5,188.5C 346.333,190.167 345.167,191.833 344,193.5C 343.667,197.833 343.333,202.167 343,206.5C 342.586,206.957 342.086,207.291 341.5,207.5C 338.962,204.281 336.296,201.114 333.5,198C 330.854,197.503 328.187,197.336 325.5,197.5C 325.351,196.448 325.517,195.448 326,194.5C 327.713,193.122 329.047,191.455 330,189.5C 330.206,184.718 330.373,180.051 330.5,175.5 Z"/></g>
<g><path style="opacity:1" fill="#1e1e1e" d="M 183.5,176.5 C 185.972,177.749 186.139,179.415 184,181.5C 183.506,179.866 183.34,178.199 183.5,176.5 Z"/></g>
<g><path style="opacity:1" fill="#131313" d="M 318.5,176.5 C 323.433,177.282 324.767,179.949 322.5,184.5C 319.99,184.009 317.656,183.009 315.5,181.5C 316.763,179.971 317.763,178.305 318.5,176.5 Z"/></g>
<g><path style="opacity:1" fill="#030303" d="M 222.5,180.5 C 223.586,180.62 224.253,181.287 224.5,182.5C 224.167,183.167 223.833,183.833 223.5,184.5C 222.571,183.311 222.238,181.978 222.5,180.5 Z"/></g>
<g><path style="opacity:1" fill="#151515" d="M 255.5,181.5 C 259.935,181.752 261.268,183.919 259.5,188C 254.784,188.057 253.45,185.891 255.5,181.5 Z"/></g>
<g><path style="opacity:1" fill="#dbdbdb" d="M 197.5,223.5 C 198.625,224.348 198.625,225.348 197.5,226.5C 181.262,213.6 165.929,199.6 151.5,184.5C 151.808,183.692 152.308,183.025 153,182.5C 166.171,198.179 181.004,211.845 197.5,223.5 Z"/></g>
<g><path style="opacity:1" fill="#1a1a1a" d="M 296.5,187.5 C 298.465,187.948 298.798,188.948 297.5,190.5C 296.614,189.675 296.281,188.675 296.5,187.5 Z"/></g>
<g><path style="opacity:1" fill="#252525" d="M 181.5,188.5 C 183.972,189.749 184.139,191.415 182,193.5C 180.372,192.038 180.205,190.372 181.5,188.5 Z"/></g>
<g><path style="opacity:1" fill="#0a0a0a" d="M 223.5,190.5 C 224.693,190.97 225.36,191.97 225.5,193.5C 225.333,194.5 225.167,195.5 225,196.5C 223.681,194.75 223.181,192.75 223.5,190.5 Z"/></g>
<g><path style="opacity:1" fill="#000000" d="M 277.5,190.5 C 279.337,190.639 279.67,191.306 278.5,192.5C 277.702,192.043 277.369,191.376 277.5,190.5 Z"/></g>
<g><path style="opacity:1" fill="#131313" d="M 357.5,192.5 C 364.373,192.818 365.373,195.485 360.5,200.5C 359.15,199.05 357.484,198.383 355.5,198.5C 355.253,196.142 355.919,194.142 357.5,192.5 Z"/></g>
<g><path style="opacity:1" fill="#1c1c1c" d="M 307.5,193.5 C 308.5,193.5 309.5,193.5 310.5,193.5C 310.5,194.5 310.5,195.5 310.5,196.5C 309.5,196.5 308.5,196.5 307.5,196.5C 307.5,195.5 307.5,194.5 307.5,193.5 Z"/></g>
<g><path style="opacity:1" fill="#171717" d="M 290.5,194.5 C 295.861,195.417 296.694,197.75 293,201.5C 289.561,200.15 288.728,197.817 290.5,194.5 Z"/></g>
<g><path style="opacity:1" fill="#1e1e1e" d="M 246.5,196.5 C 248.465,196.948 248.798,197.948 247.5,199.5C 245.481,198.867 245.147,197.867 246.5,196.5 Z"/></g>
<g><path style="opacity:1" fill="#0f0f0f" d="M 254.5,199.5 C 255.552,199.351 256.552,199.517 257.5,200C 258.585,202.172 259.919,204.172 261.5,206C 263.833,206.333 266.167,206.667 268.5,207C 268.957,207.414 269.291,207.914 269.5,208.5C 266.342,213.708 264.676,219.375 264.5,225.5C 262.24,223.823 260.573,221.657 259.5,219C 256.956,217.908 254.289,217.241 251.5,217C 251.043,216.586 250.709,216.086 250.5,215.5C 255.417,211.11 256.75,205.777 254.5,199.5 Z"/></g>
<g><path style="opacity:1" fill="#292929" d="M 276.5,198.5 C 278.048,198.821 278.715,199.821 278.5,201.5C 275.752,201.598 275.086,200.598 276.5,198.5 Z"/></g>
<g><path style="opacity:1" fill="#1f1f1f" d="M 208.5,201.5 C 210.213,202.635 210.88,204.302 210.5,206.5C 209.5,206.5 208.5,206.5 207.5,206.5C 207.366,204.708 207.699,203.042 208.5,201.5 Z"/></g>
<g><path style="opacity:1" fill="#070707" d="M 225.5,202.5 C 226.586,202.62 227.253,203.287 227.5,204.5C 227.167,205.167 226.833,205.833 226.5,206.5C 225.571,205.311 225.238,203.978 225.5,202.5 Z"/></g>
<g><path style="opacity:1" fill="#070707" d="M 301.5,206.5 C 302.708,207.234 304.041,207.567 305.5,207.5C 305.5,209.5 305.5,211.5 305.5,213.5C 299.668,213.38 298.334,211.046 301.5,206.5 Z"/></g>
<g><path style="opacity:1" fill="#141414" d="M 277.5,210.5 C 282.47,211.764 283.47,214.43 280.5,218.5C 278.668,217.752 277.001,216.752 275.5,215.5C 276.174,213.805 276.841,212.138 277.5,210.5 Z"/></g>
<g><path style="opacity:1" fill="#232323" d="M 228.5,212.5 C 230.359,212.461 231.692,213.294 232.5,215C 230.314,216.398 228.981,215.564 228.5,212.5 Z"/></g>
<g><path style="opacity:1" fill="#8b8b8b" d="M 139.5,211.5 C 141.14,212.32 142.807,213.153 144.5,214C 142.225,214.405 140.225,213.905 138.5,212.5C 139.167,212.5 139.5,212.167 139.5,211.5 Z"/></g>
<g><path style="opacity:1" fill="#1b1b1b" d="M 346.5,214.5 C 347.5,214.5 348.5,214.5 349.5,214.5C 348.754,218.31 347.754,218.31 346.5,214.5 Z"/></g>
<g><path style="opacity:1" fill="#1c1c1c" d="M 313.5,215.5 C 314.5,215.5 315.5,215.5 316.5,215.5C 316.5,216.5 316.5,217.5 316.5,218.5C 315.5,218.5 314.5,218.5 313.5,218.5C 313.5,217.5 313.5,216.5 313.5,215.5 Z"/></g>
<g><path style="opacity:1" fill="#181818" d="M 329.5,215.5 C 333.554,215.259 334.887,216.926 333.5,220.5C 328.724,221.931 327.391,220.264 329.5,215.5 Z"/></g>
<g><path style="opacity:1" fill="#575757" d="M 211.5,217.5 C 210.532,219.607 210.198,221.941 210.5,224.5C 209.2,221.976 209.2,219.309 210.5,216.5C 211.107,216.624 211.44,216.957 211.5,217.5 Z"/></g>
<g><path style="opacity:1" fill="#090909" d="M 296.5,217.5 C 300.26,219.754 303.593,222.588 306.5,226C 308.659,226.912 310.825,227.745 313,228.5C 313.667,229.5 313.667,230.5 313,231.5C 311.615,232.551 310.615,233.884 310,235.5C 309.501,240.155 309.334,244.821 309.5,249.5C 308.127,249.657 306.793,249.49 305.5,249C 302.128,241.807 296.462,238.64 288.5,239.5C 288.351,238.448 288.517,237.448 289,236.5C 294.698,231.494 297.198,225.161 296.5,217.5 Z"/></g>
<g><path style="opacity:1" fill="#242424" d="M 233.5,222.5 C 236.932,222.248 237.932,223.581 236.5,226.5C 234.712,225.717 233.712,224.384 233.5,222.5 Z"/></g>
<g><path style="opacity:1" fill="#1b1b1b" d="M 270.5,224.5 C 271.675,224.281 272.675,224.614 273.5,225.5C 271.948,226.798 270.948,226.465 270.5,224.5 Z"/></g>
<g><path style="opacity:1" fill="#141414" d="M 344.5,225.5 C 346.167,225.5 347.833,225.5 349.5,225.5C 350.368,230.979 348.368,232.645 343.5,230.5C 343.629,228.784 343.962,227.117 344.5,225.5 Z"/></g>
<g><path style="opacity:1" fill="#0d0d0d" d="M 334.5,225.5 C 336.465,225.948 336.798,226.948 335.5,228.5C 334.614,227.675 334.281,226.675 334.5,225.5 Z"/></g>
<g><path style="opacity:1" fill="#151515" d="M 250.5,229.5 C 254.8,229.815 256.467,232.149 255.5,236.5C 250.138,236.773 248.472,234.439 250.5,229.5 Z"/></g>
<g><path style="opacity:1" fill="#101010" d="M 240.5,231.5 C 241.995,231.415 242.995,232.081 243.5,233.5C 241.604,234.639 240.604,233.973 240.5,231.5 Z"/></g>
<g><path style="opacity:1" fill="#080808" d="M 268.5,237.5 C 270.117,238.038 271.784,238.371 273.5,238.5C 273.993,243.883 272.16,245.217 268,242.5C 267.36,240.735 267.527,239.068 268.5,237.5 Z"/></g>
<g><path style="opacity:1" fill="#0e0e0e" d="M 247.5,238.5 C 249.196,238.685 250.529,239.519 251.5,241C 249.055,241.91 247.722,241.076 247.5,238.5 Z"/></g>
<g><path style="opacity:1" fill="#828282" d="M 364.5,245.5 C 362.251,243.669 361.085,241.336 361,238.5C 362.705,240.577 363.872,242.91 364.5,245.5 Z"/></g>
<g><path style="opacity:1" fill="#424242" d="M 255.5,244.5 C 257.346,244.222 258.68,244.889 259.5,246.5C 258.052,247.354 256.719,248.354 255.5,249.5C 254.5,249.167 253.833,248.5 253.5,247.5C 254.612,246.735 255.279,245.735 255.5,244.5 Z"/></g>
<g><path style="opacity:1" fill="#191919" d="M 288.5,248.5 C 289.675,248.281 290.675,248.614 291.5,249.5C 289.948,250.798 288.948,250.465 288.5,248.5 Z"/></g>
<g><path style="opacity:1" fill="#222222" d="M 265.5,249.5 C 267.346,249.222 268.68,249.889 269.5,251.5C 267.167,252.941 265.834,252.275 265.5,249.5 Z"/></g>
<g><path style="opacity:1" fill="#1a1a1a" d="M 294.5,253.5 C 295.5,253.5 296.5,253.5 297.5,253.5C 296.754,257.31 295.754,257.31 294.5,253.5 Z"/></g>
<g><path style="opacity:1" fill="#0c0c0c" d="M 274.5,253.5 C 276.09,253.628 277.423,254.295 278.5,255.5C 276.167,256.941 274.834,256.275 274.5,253.5 Z"/></g>
<g><path style="opacity:1" fill="#090909" d="M 364.5,245.5 C 383.976,275.767 402.976,306.434 421.5,337.5C 410.408,338.433 399.408,337.599 388.5,335C 369.979,330.27 351.646,324.937 333.5,319C 307.472,308.545 283.972,312.378 263,330.5C 269.988,312.569 283.321,303.569 303,303.5C 319.166,304.4 334.999,307.233 350.5,312C 367.495,318.511 384.828,323.011 402.5,325.5C 389.822,298.812 377.155,272.145 364.5,245.5 Z"/></g>
<g><path style="opacity:1" fill="#313131" d="M 285.5,255.5 C 286.995,255.415 287.995,256.081 288.5,257.5C 285.623,258.911 284.623,258.244 285.5,255.5 Z"/></g>
<g><path style="opacity:1" fill="#151515" d="M 293.5,257.5 C 294.978,257.238 296.311,257.571 297.5,258.5C 296.833,258.833 296.167,259.167 295.5,259.5C 294.287,259.253 293.62,258.586 293.5,257.5 Z"/></g>
<g><path style="opacity:1" fill="#222222" d="M 311.5,256.5 C 316.276,256.671 316.609,257.671 312.5,259.5C 310.197,259.124 309.863,258.124 311.5,256.5 Z"/></g>
<g><path style="opacity:1" fill="#3e3e3e" d="M 301.5,257.5 C 305.161,257.426 305.828,258.426 303.5,260.5C 302.081,259.995 301.415,258.995 301.5,257.5 Z"/></g>
<g><path style="opacity:1" fill="#212121" d="M 314.5,264.5 C 316.465,264.948 316.798,265.948 315.5,267.5C 314.614,266.675 314.281,265.675 314.5,264.5 Z"/></g>
<g><path style="opacity:1" fill="#141414" d="M 284.5,265.5 C 291.177,266.177 292.177,268.844 287.5,273.5C 285.668,272.752 284.001,271.752 282.5,270.5C 283.174,268.805 283.841,267.138 284.5,265.5 Z"/></g>
<g><path style="opacity:1" fill="#161616" d="M 129.5,341.5 C 128.508,341.672 127.842,341.338 127.5,340.5C 144.861,336.658 161.861,331.492 178.5,325C 197.33,320.118 214.997,322.785 231.5,333C 233.037,334.11 233.703,335.61 233.5,337.5C 225.899,333.54 217.899,330.374 209.5,328C 200.171,326.051 190.837,326.051 181.5,328C 164.647,334.38 147.313,338.88 129.5,341.5 Z"/></g>
<g><path style="opacity:1" fill="#171717" d="M 297.5,322.5 C 304.23,322.226 310.897,322.726 317.5,324C 337.6,330.884 357.933,336.884 378.5,342C 368.395,341.247 358.395,339.581 348.5,337C 338.456,334.208 328.456,331.208 318.5,328C 300.86,324.578 284.526,327.745 269.5,337.5C 268.5,337.167 267.833,336.5 267.5,335.5C 276.37,328.395 286.37,324.061 297.5,322.5 Z"/></g>
<g><path style="opacity:1" fill="#2b2b2b" d="M 176.5,337.5 C 175.833,337.5 175.5,337.167 175.5,336.5C 189.862,332.413 204.196,332.579 218.5,337C 204.508,336.168 190.508,336.334 176.5,337.5 Z"/></g>
<g><path style="opacity:1" fill="#252525" d="M 325.5,336.5 C 325.158,337.338 324.492,337.672 323.5,337.5C 309.772,336.56 296.772,336.226 284.5,336.5C 298.143,332.622 311.81,332.622 325.5,336.5 Z"/></g>
<g><path style="opacity:1" fill="#676767" d="M 175.5,336.5 C 175.5,337.167 175.833,337.5 176.5,337.5C 173.72,338.82 170.72,339.32 167.5,339C 170.154,338.059 172.821,337.226 175.5,336.5 Z"/></g>
<g><path style="opacity:1" fill="#838383" d="M 325.5,336.5 C 329.571,337.356 333.571,338.523 337.5,340C 332.648,339.782 327.981,338.949 323.5,337.5C 324.492,337.672 325.158,337.338 325.5,336.5 Z"/></g>
<g><path style="opacity:1" fill="#888888" d="M 127.5,340.5 C 127.842,341.338 128.508,341.672 129.5,341.5C 125.402,343.059 121.069,343.559 116.5,343C 120.221,342.319 123.887,341.486 127.5,340.5 Z"/></g>
<g><path style="opacity:1" fill="#080808" d="M 193.5,342.5 C 203.541,342.244 213.541,342.744 223.5,344C 235.14,357.261 249.14,360.594 265.5,354C 270.521,350.304 275.521,346.638 280.5,343C 303.11,341.893 325.444,343.893 347.5,349C 356.903,351.892 366.403,354.392 376,356.5C 386.449,352.681 396.616,348.515 406.5,344C 397.833,352 389.167,360 380.5,368C 379.667,368.167 378.833,368.333 378,368.5C 346.587,358.304 314.421,353.637 281.5,354.5C 273.207,363.885 262.707,368.551 250,368.5C 237.248,368.795 227.082,363.961 219.5,354C 186.671,353.082 154.671,357.915 123.5,368.5C 121.056,367.233 118.723,365.733 116.5,364C 108.66,357.318 101.66,350.485 95.5,343.5C 104.833,348.668 114.499,353.001 124.5,356.5C 147.221,349.756 170.221,345.089 193.5,342.5 Z"/></g>
<g><path style="opacity:1" fill="#090909" d="M 332.5,382.5 C 334.735,382.205 336.735,382.539 338.5,383.5C 338.5,386.833 338.5,390.167 338.5,393.5C 342.167,393.5 345.833,393.5 349.5,393.5C 349.121,388.703 349.621,384.036 351,379.5C 353.003,377.078 355.503,376.245 358.5,377C 356.667,377.5 355.5,378.667 355,380.5C 354.184,389.079 354.351,397.579 355.5,406C 352.833,406.667 350.167,406.667 347.5,406C 349.377,402.506 350.044,398.673 349.5,394.5C 345.833,394.5 342.167,394.5 338.5,394.5C 338.825,399.599 338.325,404.599 337,409.5C 335.136,412.207 332.636,413.041 329.5,412C 331.049,410.786 332.215,409.286 333,407.5C 333.801,399.088 333.634,390.755 332.5,382.5 Z"/></g>
<g><path style="opacity:1" fill="#6c6c6c" d="M 123.5,380.5 C 121.901,380.232 120.568,380.566 119.5,381.5C 116.402,381.587 116.068,381.087 118.5,380C 120.387,379.22 122.054,379.387 123.5,380.5 Z"/></g>
<g><path style="opacity:1" fill="#6c6c6c" d="M 368.5,380.5 C 366.901,380.232 365.568,380.566 364.5,381.5C 361.402,381.587 361.068,381.087 363.5,380C 365.387,379.22 367.054,379.387 368.5,380.5 Z"/></g>
<g><path style="opacity:1" fill="#121212" d="M 119.5,381.5 C 120.568,380.566 121.901,380.232 123.5,380.5C 126.112,381.277 127.945,382.944 129,385.5C 132.058,393.283 135.392,400.95 139,408.5C 140.451,410.464 142.284,411.797 144.5,412.5C 143.432,413.434 142.099,413.768 140.5,413.5C 133.985,411.163 130.318,406.496 129.5,399.5C 126.482,399.335 123.482,399.502 120.5,400C 118.65,401.845 118.317,403.845 119.5,406C 117.5,406.667 115.5,406.667 113.5,406C 114.416,405.626 115.25,405.126 116,404.5C 118.779,398.61 121.279,392.61 123.5,386.5C 122.905,384.239 121.571,382.572 119.5,381.5 Z"/></g>
<g><path style="opacity:1" fill="#6d6d6d" d="M 201.5,381.5 C 202.314,379.727 203.648,379.227 205.5,380C 204.255,380.791 202.922,381.291 201.5,381.5 Z"/></g>
<g><path style="opacity:1" fill="#141414" d="M 259.5,412.5 C 258.432,413.434 257.099,413.768 255.5,413.5C 249.326,411.02 245.326,406.52 243.5,400C 240.518,399.502 237.518,399.335 234.5,399.5C 234.007,401.806 233.674,404.139 233.5,406.5C 231.473,406.662 229.473,406.495 227.5,406C 228.624,405.751 229.624,405.251 230.5,404.5C 233.91,398.042 236.41,391.376 238,384.5C 236.442,382.232 234.276,381.066 231.5,381C 236.242,378.771 240.075,379.938 243,384.5C 246.528,392.084 249.861,399.751 253,407.5C 254.777,409.79 256.944,411.457 259.5,412.5 Z"/></g>
<g><path style="opacity:1" fill="#131313" d="M 364.5,381.5 C 365.568,380.566 366.901,380.232 368.5,380.5C 370.371,380.859 371.871,381.859 373,383.5C 376.621,392.371 380.621,401.037 385,409.5C 386.887,411.886 389.387,413.053 392.5,413C 382.674,414.573 376.674,410.406 374.5,400.5C 369.385,398.432 365.718,399.765 363.5,404.5C 363.709,405.086 364.043,405.586 364.5,406C 362.5,406.667 360.5,406.667 358.5,406C 359.416,405.626 360.25,405.126 361,404.5C 363.779,398.61 366.279,392.61 368.5,386.5C 368.324,383.775 366.99,382.108 364.5,381.5 Z"/></g>
<g><path style="opacity:1" fill="#141414" d="M 201.5,381.5 C 195.985,388.214 193.818,395.88 195,404.5C 195.5,405 196,405.5 196.5,406C 193.833,406.667 191.167,406.667 188.5,406C 190.575,398.333 189.408,391.167 185,384.5C 183.269,382.383 181.102,380.883 178.5,380C 185.875,380.113 191.042,383.613 194,390.5C 195.596,386.577 198.096,383.577 201.5,381.5 Z"/></g>
<g><path style="opacity:1" fill="#6d6d6d" d="M 338.5,383.5 C 336.735,382.539 334.735,382.205 332.5,382.5C 333.69,381.324 336.357,381.157 340.5,382C 339.956,382.717 339.289,383.217 338.5,383.5 Z"/></g>
<g><path style="opacity:1" fill="#222222" d="M 92.5,382.5 C 97.9753,381.511 103.642,381.178 109.5,381.5C 109.649,382.552 109.483,383.552 109,384.5C 106.281,383.556 103.448,383.223 100.5,383.5C 100.5,386.833 100.5,390.167 100.5,393.5C 104.767,393.797 108.934,393.464 113,392.5C 113.667,393.833 113.667,395.167 113,396.5C 108.934,395.536 104.767,395.203 100.5,395.5C 100.211,399.106 100.544,402.606 101.5,406C 98.8333,406.667 96.1667,406.667 93.5,406C 94.1508,402.082 94.4841,398.082 94.5,394C 94.4898,389.771 93.8232,385.938 92.5,382.5 Z"/></g>
<g><path style="opacity:1" fill="#0e0e0e" d="M 140.5,381.5 C 144.514,381.334 148.514,381.501 152.5,382C 152,382.5 151.5,383 151,383.5C 150.187,391.08 150.353,398.58 151.5,406C 148.833,406.667 146.167,406.667 143.5,406C 145.444,398.778 146.111,391.278 145.5,383.5C 143.5,383.5 141.5,383.5 139.5,383.5C 139.286,385.144 139.62,386.644 140.5,388C 138.527,388.538 137.527,387.704 137.5,385.5C 137.787,383.557 138.787,382.223 140.5,381.5 Z"/></g>
<g><path style="opacity:1" fill="#141414" d="M 156.5,382.5 C 160.981,381.352 165.648,381.185 170.5,382C 176.295,382.782 178.462,385.949 177,391.5C 175.58,393.422 173.747,394.755 171.5,395.5C 175.657,399.826 179.657,404.326 183.5,409C 192.923,413.133 192.256,414.466 181.5,413C 175.33,408.004 170.33,402.004 166.5,395C 171.038,393.287 172.538,390.12 171,385.5C 169.211,383.771 167.044,383.104 164.5,383.5C 164.186,391.087 164.519,398.587 165.5,406C 162.5,406.667 159.5,406.667 156.5,406C 157.416,405.626 158.25,405.126 159,404.5C 159.667,397.5 159.667,390.5 159,383.5C 158.329,382.748 157.496,382.414 156.5,382.5 Z"/></g>
<g><path style="opacity:1" fill="#242424" d="M 204.5,381.5 C 212.167,381.5 219.833,381.5 227.5,381.5C 227.649,382.552 227.483,383.552 227,384.5C 224.619,383.565 222.119,383.232 219.5,383.5C 219.186,391.087 219.519,398.587 220.5,406C 217.833,406.667 215.167,406.667 212.5,406C 213.481,398.587 213.814,391.087 213.5,383.5C 210.482,383.335 207.482,383.502 204.5,384C 203.107,385.171 202.273,386.671 202,388.5C 201.333,387.167 201.333,385.833 202,384.5C 203.045,383.627 203.878,382.627 204.5,381.5 Z"/></g>
<g><path style="opacity:1" fill="#050505" d="M 263.5,406.5 C 271.396,410.39 279.729,411.89 288.5,411C 287.449,412.385 286.116,413.385 284.5,414C 281.167,414.667 277.833,414.667 274.5,414C 268.5,411.333 262.5,408.667 256.5,406C 257.481,398.587 257.814,391.087 257.5,383.5C 258.919,382.549 260.585,382.216 262.5,382.5C 262.174,390.684 262.508,398.684 263.5,406.5 Z"/></g>
<g><path style="opacity:1" fill="#151515" d="M 269.5,382.5 C 273.97,381.514 278.637,381.181 283.5,381.5C 283.719,382.675 283.386,383.675 282.5,384.5C 280.929,383.691 279.262,383.357 277.5,383.5C 277.5,386.833 277.5,390.167 277.5,393.5C 280.448,393.777 283.281,393.444 286,392.5C 286.667,393.833 286.667,395.167 286,396.5C 283.281,395.556 280.448,395.223 277.5,395.5C 277.5,398.5 277.5,401.5 277.5,404.5C 281.182,404.665 284.848,404.499 288.5,404C 291.679,399.79 292.345,400.623 290.5,406.5C 283.825,406.666 277.158,406.5 270.5,406C 271.792,402.429 272.458,398.595 272.5,394.5C 272.333,390.833 272.167,387.167 272,383.5C 271.329,382.748 270.496,382.414 269.5,382.5 Z"/></g>
<g><path style="opacity:1" fill="#151515" d="M 319.5,405.5 C 320.167,405.5 320.5,405.833 320.5,406.5C 306.859,408.681 300.359,403.014 301,389.5C 302.892,385.942 305.725,383.442 309.5,382C 314.287,381.121 318.953,381.455 323.5,383C 325.068,388.627 324.068,388.961 320.5,384C 317.167,383.333 313.833,383.333 310.5,384C 308.951,385.214 307.785,386.714 307,388.5C 303.946,399.778 308.113,405.445 319.5,405.5 Z"/></g>
<g><path style="opacity:1" fill="#242424" d="M 384.5,381.5 C 392.167,381.5 399.833,381.5 407.5,381.5C 407.649,382.552 407.483,383.552 407,384.5C 404.619,383.565 402.119,383.232 399.5,383.5C 399.186,391.087 399.519,398.587 400.5,406C 397.833,406.667 395.167,406.667 392.5,406C 393.481,398.587 393.814,391.087 393.5,383.5C 390.482,383.335 387.482,383.502 384.5,384C 383.107,385.171 382.273,386.671 382,388.5C 381.333,387.167 381.333,385.833 382,384.5C 383.045,383.627 383.878,382.627 384.5,381.5 Z"/></g>
<g><path style="opacity:1" fill="#ababab" d="M 263.5,406.5 C 262.508,398.684 262.174,390.684 262.5,382.5C 260.585,382.216 258.919,382.549 257.5,383.5C 256.527,383.013 255.527,382.513 254.5,382C 258.167,381.333 261.833,381.333 265.5,382C 263.551,389.894 262.884,398.061 263.5,406.5 Z"/></g>
<g><path style="opacity:1" fill="#ececec" d="M 127.5,396.5 C 125.735,397.461 123.735,397.795 121.5,397.5C 123.379,387.845 125.379,387.512 127.5,396.5 Z"/></g>
<g><path style="opacity:1" fill="#ececec" d="M 372.5,396.5 C 370.833,397.833 369.167,397.833 367.5,396.5C 369.213,387.216 370.88,387.216 372.5,396.5 Z"/></g>
<g><path style="opacity:1" fill="#d8d8d8" d="M 238.5,389.5 C 241.126,391.764 242.459,394.764 242.5,398.5C 240.5,398.5 238.5,398.5 236.5,398.5C 236.873,395.426 237.539,392.426 238.5,389.5 Z"/></g>
<g><path style="opacity:1" fill="#787878" d="M 127.5,396.5 C 128.043,396.56 128.376,396.893 128.5,397.5C 126.027,398.797 123.693,398.797 121.5,397.5C 123.735,397.795 125.735,397.461 127.5,396.5 Z"/></g>
<g><path style="opacity:1" fill="#858585" d="M 367.5,396.5 C 369.167,397.833 370.833,397.833 372.5,396.5C 373.043,396.56 373.376,396.893 373.5,397.5C 371.167,398.833 368.833,398.833 366.5,397.5C 366.624,396.893 366.957,396.56 367.5,396.5 Z"/></g>
<g><path style="opacity:1" fill="#1d1d1d" d="M 294.5,401.5 C 300.005,404.171 299.671,405.838 293.5,406.5C 293.366,404.708 293.699,403.042 294.5,401.5 Z"/></g>
<g><path style="opacity:1" fill="#4c4c4c" d="M 320.5,406.5 C 320.5,405.833 320.167,405.5 319.5,405.5C 324.779,402.984 327.612,398.651 328,392.5C 328.899,399.038 326.399,403.704 320.5,406.5 Z"/></g>
<g><path style="opacity:1" fill="#787878" d="M 144.5,412.5 C 147.598,412.413 147.932,412.913 145.5,414C 143.613,414.78 141.946,414.613 140.5,413.5C 142.099,413.768 143.432,413.434 144.5,412.5 Z"/></g>
<g><path style="opacity:1" fill="#7d7d7d" d="M 259.5,412.5 C 262.598,412.413 262.932,412.913 260.5,414C 258.613,414.78 256.946,414.613 255.5,413.5C 257.099,413.768 258.432,413.434 259.5,412.5 Z"/></g>
<g><path style="opacity:1" fill="#0f0f0f" d="M 132.5,422.5 C 133.251,421.427 134.251,421.26 135.5,422C 134.167,427 134.167,432 135.5,437C 134.5,437.667 133.5,437.667 132.5,437C 133.824,432.067 133.824,427.234 132.5,422.5 Z"/></g>
<g><path style="opacity:1" fill="#404040" d="M 164.5,436.5 C 164.66,434.801 164.494,433.134 164,431.5C 159.965,429.76 158.299,426.76 159,422.5C 161.923,419.677 163.923,420.011 165,423.5C 162.8,422.01 160.966,422.343 159.5,424.5C 161.483,426.984 163.65,429.317 166,431.5C 166.877,433.674 166.377,435.341 164.5,436.5 Z"/></g>
<g><path style="opacity:1" fill="#4e4e4e" d="M 174.5,424.5 C 184.347,423.748 186.68,423.748 181.5,424.5C 180.833,441.833 180.167,441.833 179.5,424.5C 177.833,424.5 176.167,424.5 174.5,424.5 Z"/></g>
<g><path style="opacity:1" fill="#f0f0f0" d="M 205.5,424.5 C 209.003,427.859 209.337,431.526 206.5,435.5C 199.202,437.701 196.036,435.034 197,427.5C 198.045,426.627 198.878,425.627 199.5,424.5C 201.5,423.167 203.5,423.167 205.5,424.5 Z"/></g>
<g><path style="opacity:1" fill="#4c4c4c" d="M 259.5,423.5 C 263.846,423.334 268.179,423.501 272.5,424C 270.866,424.494 269.199,424.66 267.5,424.5C 266.833,441.833 266.167,441.833 265.5,424.5C 263.533,424.261 261.699,424.594 260,425.5C 259.536,424.906 259.369,424.239 259.5,423.5 Z"/></g>
<g><path style="opacity:1" fill="#202020" d="M 319.5,424.5 C 320.251,423.427 321.251,423.26 322.5,424C 321.536,428.066 321.203,432.233 321.5,436.5C 324.114,436.295 326.448,436.295 328.5,436.5C 325.554,437.655 322.554,437.821 319.5,437C 320.822,432.733 320.822,428.566 319.5,424.5 Z"/></g>
<g><path style="opacity:1" fill="#161616" d="M 338.5,424.5 C 339.251,423.427 340.251,423.26 341.5,424C 340.167,428.333 340.167,432.667 341.5,437C 340.5,437.667 339.5,437.667 338.5,437C 339.822,432.733 339.822,428.566 338.5,424.5 Z"/></g>
<g><path style="opacity:1" fill="#3b3b3b" d="M 111.5,432.5 C 111.402,430.447 112.069,428.78 113.5,427.5C 113.504,425.158 114.337,423.158 116,421.5C 118.171,426.684 120.338,431.85 122.5,437C 121.552,437.483 120.552,437.649 119.5,437.5C 119.5,435.833 119.5,434.167 119.5,432.5C 116.833,432.5 114.167,432.5 111.5,432.5 Z"/></g>
<g><path style="opacity:1" fill="#434343" d="M 220.5,423.5 C 228.446,422.254 230.779,425.088 227.5,432C 228.439,433.944 229.773,435.611 231.5,437C 228.369,436.223 226.036,434.223 224.5,431C 227.2,430.051 228.033,428.217 227,425.5C 225.644,424.62 224.144,424.286 222.5,424.5C 222.826,428.884 222.492,433.217 221.5,437.5C 220.507,432.88 220.173,428.214 220.5,423.5 Z"/></g>
<g><path style="opacity:1" fill="#353535" d="M 239.5,424.5 C 240.568,423.566 241.901,423.232 243.5,423.5C 245.075,432.63 247.075,432.63 249.5,423.5C 250.552,423.351 251.552,423.517 252.5,424C 248.483,428.137 246.316,432.637 246,437.5C 245.5,437.333 245,437.167 244.5,437C 245.793,431.739 244.126,427.572 239.5,424.5 Z"/></g>
<g><path style="opacity:1" fill="#919191" d="M 303.5,436.5 C 302.833,432.5 302.167,428.5 301.5,424.5C 300.933,423.58 301.599,423.246 303.5,423.5C 303.5,427.833 303.5,432.167 303.5,436.5 Z"/></g>
<g><path style="opacity:1" fill="#e6e6e6" d="M 113.5,427.5 C 114.151,426.909 114.818,426.243 115.5,425.5C 117.086,427.173 117.753,429.173 117.5,431.5C 116.167,431.5 114.833,431.5 113.5,431.5C 113.5,430.167 113.5,428.833 113.5,427.5 Z"/></g>
<g><path style="opacity:1" fill="#363636" d="M 199.5,424.5 C 198.878,425.627 198.045,426.627 197,427.5C 196.036,435.034 199.202,437.701 206.5,435.5C 209.337,431.526 209.003,427.859 205.5,424.5C 211.407,427.382 212.073,431.382 207.5,436.5C 200.799,439.313 196.465,437.313 194.5,430.5C 194.778,427.246 196.445,425.246 199.5,424.5 Z"/></g>
<g><path style="opacity:1" fill="#272727" d="M 352.5,423.5 C 356.147,426.811 359.813,430.145 363.5,433.5C 364.787,430.291 364.787,427.125 363.5,424C 364.5,423.333 365.5,423.333 366.5,424C 365.697,428.414 365.197,432.914 365,437.5C 361.651,433.984 358.151,430.651 354.5,427.5C 353.654,431.055 353.321,434.388 353.5,437.5C 352.507,432.88 352.173,428.214 352.5,423.5 Z"/></g>
<g><path style="opacity:1" fill="#7f7f7f" d="M 284.5,436.5 C 283.833,432.5 283.167,428.5 282.5,424.5C 290.178,423.994 290.845,423.994 284.5,424.5C 284.5,426.5 284.5,428.5 284.5,430.5C 286.446,430.193 288.113,430.193 289.5,430.5C 287.955,431.452 286.288,431.785 284.5,431.5C 284.5,433.167 284.5,434.833 284.5,436.5 Z"/></g>
<g><path style="opacity:1" fill="#404040" d="M 379.5,436.5 C 377.589,436.426 376.422,435.426 376,433.5C 375.5,425.344 379.333,422.178 387.5,424C 388.451,424.718 388.617,425.551 388,426.5C 384.381,423.657 381.048,423.99 378,427.5C 377.068,430.823 377.568,433.823 379.5,436.5 Z"/></g>
<g><path style="opacity:1" fill="#2d2d2d" d="M 111.5,432.5 C 111.034,434.201 111.034,435.701 111.5,437C 110.5,437.667 109.5,437.667 108.5,437C 109.399,435.348 110.399,433.848 111.5,432.5 Z"/></g>
<g><path style="opacity:1" fill="#636363" d="M 164.5,436.5 C 162.636,437.793 160.636,437.793 158.5,436.5C 160.22,436.254 162.22,436.254 164.5,436.5 Z"/></g>
<g><path style="opacity:1" fill="#2d2d2d" d="M 282.5,424.5 C 283.167,428.5 283.833,432.5 284.5,436.5C 286.78,436.254 288.78,436.254 290.5,436.5C 287.554,437.655 284.554,437.821 281.5,437C 282.464,432.934 282.797,428.767 282.5,424.5 Z"/></g>
<g><path style="opacity:1" fill="#2d2d2d" d="M 301.5,424.5 C 302.167,428.5 302.833,432.5 303.5,436.5C 305.78,436.254 307.78,436.254 309.5,436.5C 306.554,437.655 303.554,437.821 300.5,437C 301.464,432.934 301.797,428.767 301.5,424.5 Z"/></g>
<g><path style="opacity:1" fill="#7b7b7b" d="M 379.5,436.5 C 381.857,436.663 384.19,436.497 386.5,436C 387.406,434.301 387.739,432.467 387.5,430.5C 388.5,430.5 389.5,430.5 390.5,430.5C 390.301,435.203 387.801,437.869 383,438.5C 381.541,438.192 380.374,437.525 379.5,436.5 Z"/></g>
</svg>
